<svg width="51" height="70" viewBox="0 0 51 70" fill="none" xmlns="http://www.w3.org/2000/svg">
<g clip-path="url(#clip0_257_87)">
<path d="M50.0514 13.7567L45.5544 64.3698L25.3418 70L5.18425 64.3776L0.692383 13.7567H50.0514Z" fill="#141414"/>
<path d="M41.7052 61.1468L45.5479 17.8956H25.3721V65.6963L41.7052 61.1468Z" fill="#141414"/>
<path d="M10.9902 36.6703L11.5439 42.8787H25.3718V36.6703H10.9902Z" fill="#EBEBEB"/>
<path d="M25.3715 24.1041H25.3503H9.87695L10.4387 30.3126H25.3715V24.1041Z" fill="#EBEBEB"/>
<path d="M25.372 59.2537V52.7942L25.345 52.8018L18.4633 50.9346L18.0232 45.9832H14.6794H11.8203L12.6858 55.7312L25.3435 59.2616L25.372 59.2537Z" fill="#EBEBEB"/>
<path d="M12.3086 0H19.7925V3.14441H15.4382V6.28912H19.7925V9.43353H12.3086V0Z" fill="#141414"/>
<path d="M21.29 0H28.774V2.73443H24.4208V3.28107H28.774V9.57019H21.29V6.6991H25.6444V6.15246H21.29V0Z" fill="#141414"/>
<path d="M30.2705 0H37.7547V2.73443H33.4004V3.28107H37.7547V9.57019H30.2705V6.6991H34.6249V6.15246H30.2705V0Z" fill="#141414"/>
<path d="M32.9598 42.8788L32.2425 50.9306L25.3506 52.7997V59.2588L38.0185 55.7312L38.1113 54.6822L39.5632 38.3374L39.7142 36.6703L40.8296 24.1041H25.3506V30.3126H34.0578L33.4954 36.6703H25.3506V42.8788H32.9598Z" fill="white"/>
</g>
<defs>
<clipPath id="clip0_257_87">
<rect width="49.359" height="70" fill="white" transform="translate(0.692383)"/>
</clipPath>
</defs>
</svg>
