<svg width="48" height="62" viewBox="0 0 48 62" fill="none" xmlns="http://www.w3.org/2000/svg">
<g clip-path="url(#clip0_257_156)">
<path d="M36.1206 15.6299C35.1099 15.342 34.2474 15.1278 33.4133 14.8352C33.2241 14.768 33.0491 14.4473 33.0065 14.2096C32.5335 11.6208 31.6694 9.20417 30.0201 7.10033C27.6076 4.03139 24.6591 3.18986 20.8748 4.30669C17.1064 5.42352 14.9872 8.10767 13.7951 11.5723C11.6901 17.7227 12.4927 23.6416 15.6368 29.2899C15.7598 29.5105 16.1493 29.6919 16.4252 29.7044C18.0461 29.7795 19.3974 30.8166 19.7364 32.3182C19.8955 33.0504 19.8035 33.8144 19.475 34.4888C19.1465 35.1633 18.6003 35.7096 17.9231 36.041C17.2508 36.3782 16.4834 36.4804 15.7453 36.3307C15.0072 36.1811 14.3416 35.7885 13.8566 35.2166C13.0162 34.2421 12.8775 33.1034 13.2795 31.9318C13.3601 31.7345 13.3924 31.5211 13.3738 31.309C13.3552 31.0969 13.2861 30.8923 13.1723 30.7118C11.1225 27.0234 9.81221 23.0957 9.76649 18.8552C9.70972 13.4525 10.9569 8.469 14.9746 4.5288C19.1451 0.449399 25.11 -0.196611 29.6385 2.92707C32.9072 5.1842 34.6558 8.43146 35.5293 12.1965C35.7816 13.2804 35.9109 14.391 36.1206 15.6299Z" fill="#141414"/>
<path d="M27.0694 43.7243C27.9461 43.0126 28.7203 42.3603 29.5276 41.7534C29.6663 41.6501 29.9722 41.6736 30.1583 41.744C32.3456 42.5664 34.6872 42.9064 37.0204 42.7404C41.6119 42.4197 45.4593 37.76 44.7103 33.2645C44.0291 29.1742 41.6829 26.1334 38.4032 23.7543C34.2484 20.7448 29.5828 19.2713 24.4204 19.3902C24.2306 19.3765 24.0408 19.4168 23.8733 19.5062C23.7057 19.5957 23.5673 19.7307 23.4743 19.8954C22.6465 21.1608 21.2133 21.7177 19.8699 21.3626C19.1649 21.1891 18.5327 20.8005 18.0622 20.2516C17.5918 19.7027 17.3069 19.0212 17.2477 18.3031C17.1231 17.0063 18.0361 15.5845 19.3606 15.0183C20.0175 14.7357 20.7503 14.6765 21.4447 14.8499C22.1391 15.0233 22.7562 15.4196 23.2 15.9771C23.5737 16.4573 23.9553 16.5699 24.5182 16.5652C30.1945 16.5199 35.4215 17.9402 39.991 21.347C43.4363 23.9154 46.2461 27.0281 47.1969 31.3437C48.5781 37.6239 46.3202 42.0615 40.0683 44.5658C35.7006 46.3224 31.3819 45.642 27.0694 43.7243Z" fill="#141414"/>
<path d="M7.2086 21.921C7.45142 22.8001 7.7242 23.6416 7.88976 24.491C7.93707 24.7303 7.73209 25.1167 7.53026 25.2887C5.62395 26.9468 4.09763 28.866 3.28875 31.2811C1.56376 36.4367 4.98693 41.7143 10.4047 42.4354C15.258 43.0798 19.4286 41.4812 23.3516 38.8878C26.3127 36.9325 28.6858 34.4502 30.2894 31.278C29.1399 29.62 29.0469 28.2216 29.9961 26.9061C30.4115 26.3309 31.0015 25.9026 31.6797 25.6837C32.358 25.4647 33.0891 25.4667 33.7661 25.6892C35.1852 26.1584 36.1613 27.5318 36.1061 28.9614C36.066 29.668 35.811 30.3459 35.3747 30.9058C34.9384 31.4657 34.3413 31.8812 33.6621 32.0976C33.3157 32.2188 33.0232 32.4568 32.8358 32.7702C29.1052 39.6761 23.2696 43.7336 15.5891 45.1821C11.9074 45.8781 8.32495 45.4308 5.05789 43.4239C2.28435 41.719 0.802184 39.1725 0.374879 36.0269C-0.389854 30.3958 2.0226 26.0927 6.25938 22.5983C6.52113 22.3825 6.79864 22.1838 7.06827 21.9726C7.11329 21.9511 7.16028 21.9338 7.2086 21.921Z" fill="#141414"/>
<path d="M7.4561 55.8155L10.6901 60.7865C9.23627 61.4982 7.44979 60.9992 6.73078 59.7432C6.22464 58.8594 5.73269 57.9663 5.17451 57.1154C4.97109 56.8264 4.67476 56.6147 4.33409 56.5147C3.72231 56.3583 3.33284 56.5773 3.36122 57.3171C3.40064 58.2807 3.34861 59.2474 3.37699 60.2109C3.39434 60.8256 3.13575 61.0383 2.53342 61.029C0.201377 60.9946 0.549843 61.2636 0.530922 59.1034C0.515154 55.9751 0.530922 52.8467 0.530922 49.7183C0.530922 48.7047 0.564034 48.6437 1.6047 48.6813C3.35807 48.7438 5.14771 48.6625 6.85219 48.9941C9.65412 49.54 10.6033 52.6168 8.74432 54.7691C8.38009 55.1898 7.86606 55.487 7.4561 55.8155ZM3.36753 52.5964C3.36753 54.5829 3.4984 54.7049 5.34796 54.439C5.37318 54.439 5.39999 54.439 5.42522 54.4296C6.28456 54.2732 6.84431 53.5209 6.83643 52.537C6.83643 51.5813 6.34605 51.0088 5.41733 50.8617C3.36753 50.5317 3.36753 50.5317 3.36753 52.5964Z" fill="#141414"/>
<path d="M25.1849 60.0982C24.9058 60.2765 24.6709 60.4376 24.428 60.5816C22.4303 61.7766 20.319 61.0837 19.6157 58.8813C18.9724 56.865 18.963 54.8504 20.5271 53.1563C21.5851 52.0114 23.1572 51.7752 24.5652 52.4634C24.6788 52.5197 24.7986 52.5635 25.125 52.7027V51.015C25.125 50.3377 25.0761 49.6526 25.1581 48.9815C25.1991 48.8398 25.2749 48.7103 25.3786 48.6047C25.4823 48.4991 25.6108 48.4206 25.7525 48.3762C27.7235 48.1212 27.8023 48.201 27.8023 50.1484C27.8023 53.355 27.8023 56.5616 27.7929 59.7697C27.7929 60.2171 28.0247 60.8193 27.2946 60.9945C26.4179 61.2072 25.7699 60.982 25.4025 60.3516C25.3354 60.2627 25.2627 60.178 25.1849 60.0982ZM25.125 56.4333C25.125 56.0939 25.125 55.756 25.125 55.4182C25.125 54.353 24.6441 53.9259 23.5782 53.9869C23.2157 53.9894 22.867 54.1249 22.5992 54.3671C22.3313 54.6094 22.1634 54.9415 22.1275 55.2993C22.0003 56.2457 22.0151 57.2056 22.1717 58.1477C22.3183 59.0033 22.9601 59.2755 23.8557 59.1284C24.2087 59.0845 24.5328 58.9125 24.7657 58.6457C24.9986 58.3789 25.1238 58.036 25.1171 57.6831C25.1329 57.2717 25.1234 56.8494 25.125 56.4333Z" fill="#141414"/>
<path d="M34.8304 60.2077C34.2076 60.5033 33.651 60.8725 33.0408 61.0383C31.1707 61.5435 29.3811 60.3532 29.2644 58.4433C29.1509 56.6007 29.2092 54.7471 29.2502 52.8982C29.2502 52.6839 29.6113 52.3226 29.8399 52.2913C31.6548 52.0426 31.7573 52.149 31.7589 53.9509C31.7589 55.2023 31.7321 56.4536 31.773 57.705C31.814 58.9563 32.5788 59.4459 33.7456 59.0752C34.3006 58.8969 34.616 58.5762 34.6049 57.938C34.5765 56.3488 34.6175 54.7596 34.586 53.1704C34.5718 52.5025 34.8004 52.2413 35.4942 52.2553C37.5093 52.2929 37.2602 52.0989 37.2697 54.0166C37.2791 55.9703 37.2839 57.9271 37.2697 59.8761C37.2697 60.2749 37.503 60.8944 36.8613 60.971C36.2195 61.0477 35.4658 61.3042 35.0496 60.4752C34.9872 60.3779 34.9137 60.2881 34.8304 60.2077Z" fill="#141414"/>
<path d="M15.6542 57.1154C14.9446 57.1154 14.2351 57.1263 13.5271 57.1154C12.909 57.1028 12.8128 57.3813 13.0068 57.8975C13.4293 59.0284 14.7239 59.5164 16.0515 59.019C16.2959 58.9267 16.5245 58.789 16.7642 58.6874C17.4454 58.4058 17.8585 58.5779 18.2905 59.3506C18.6264 59.9481 18.065 60.1436 17.7371 60.3595C15.5296 61.8032 12.2657 61.2652 10.9648 59.2724C9.8611 57.5846 9.9699 54.963 11.1966 53.6413C12.6599 52.0615 14.8847 51.6532 16.7153 52.6293C17.9767 53.2972 18.8361 55.0131 18.6421 56.3943C18.568 56.9136 18.2653 57.106 17.7812 57.1075H15.6542V57.1154ZM14.5977 55.5512C14.9129 55.5698 15.2291 55.5661 15.5438 55.5402C15.7771 55.5058 16.1319 55.4198 16.1871 55.2681C16.2565 55.0819 16.1256 54.7659 15.9869 54.5704C15.2883 53.574 13.9875 53.5787 13.2906 54.5798C13.1534 54.7753 13.021 55.0944 13.0919 55.2774C13.1502 55.4339 13.5066 55.5042 13.7431 55.5402C14.0273 55.5655 14.313 55.5691 14.5977 55.5512Z" fill="#141414"/>
<path d="M47.1983 52.2664C46.2948 53.5568 45.5506 54.6549 44.7669 55.7248C44.4516 56.1628 44.4106 56.5147 44.7291 56.9855C45.5853 58.2556 46.3878 59.5586 47.3024 60.9898C46.3563 60.9898 45.5411 61.0696 44.7606 60.9523C44.4263 60.9023 44.0921 60.483 43.865 60.1593C43.4077 59.5039 43.023 58.7968 42.5042 57.9397C42.1242 58.5388 41.8341 58.9783 41.5582 59.4288C40.5159 61.1494 40.106 61.3261 38.0215 60.9179C38.0761 60.7559 38.1447 60.5989 38.2265 60.4486C38.9991 59.2692 39.8032 58.1024 40.5396 56.9089C40.6021 56.7737 40.6332 56.6264 40.6305 56.4777C40.6277 56.3291 40.5913 56.1829 40.5238 56.0501C39.8695 55.0131 39.1473 54.0167 38.4567 53.0047C38.3416 52.8373 38.258 52.6512 38.1571 52.4713C39.5872 51.8456 40.9275 52.2585 41.6938 53.5099C42.0091 54.012 42.334 54.5016 42.7345 55.1194C43.1649 54.3999 43.5638 53.8259 43.865 53.2049C44.2245 52.4681 44.7606 52.1756 45.5695 52.2554C46.0331 52.2992 46.5014 52.2664 47.1983 52.2664Z" fill="#141414"/>
</g>
<defs>
<clipPath id="clip0_257_156">
<rect width="47.3536" height="60.215" fill="white" transform="translate(0.234375 0.960938)"/>
</clipPath>
</defs>
</svg>
