<svg width="145" height="60" viewBox="0 0 145 60" fill="none" xmlns="http://www.w3.org/2000/svg">
<path d="M86.8455 19.399C83.6703 19.399 81.3037 20.9784 81.3037 24.7764C81.3037 27.6379 82.861 29.626 86.6741 29.626C89.9064 29.626 92.1022 27.7012 92.1022 24.6608C92.1022 21.2117 90.1349 19.399 86.8455 19.399ZM80.4951 46.2263C79.743 47.1595 78.9942 48.1532 78.9942 49.3231C78.9942 51.6601 81.9362 52.3614 85.9798 52.3614C89.331 52.3614 93.8935 52.1247 93.8935 48.9748C93.8935 47.0989 91.6983 46.9833 88.9244 46.8078L80.4951 46.2263ZM97.5896 19.5752C98.6267 20.9205 99.7263 22.791 99.7263 25.4797C99.7263 31.9638 94.7021 35.7646 87.4262 35.7646C85.5751 35.7646 83.9015 35.5306 82.861 35.2374L80.9569 38.3349L86.6142 38.6845C96.6076 39.3287 102.497 39.6232 102.497 47.3907C102.497 54.1108 96.6647 57.9095 86.6142 57.9095C76.1632 57.9095 72.1768 55.2208 72.1768 50.6038C72.1768 47.9736 73.3328 46.5745 75.3546 44.6422C73.4471 43.8259 72.8146 42.3677 72.8146 40.7883C72.8146 39.5028 73.4471 38.3329 74.4889 37.2208C75.5307 36.1087 76.6821 35.0014 78.0687 33.7166C75.241 32.3127 73.1023 29.273 73.1023 24.9478C73.1023 18.2271 77.49 13.6128 86.3272 13.6128C88.8101 13.6128 90.3117 13.8434 91.6412 14.1984H102.905V19.1637L97.5956 19.5718" fill="#141414"/>
<mask id="mask0_257_233" style="mask-type:luminance" maskUnits="userSpaceOnUse" x="105" y="-2" width="18" height="47">
<path d="M122.1 -1.44897H105.511V44.355H122.1V-1.44897Z" fill="white"/>
</mask>
<g mask="url(#mask0_257_233)">
<path d="M113.061 8.95355C109.768 8.95355 107.864 7.02594 107.864 3.69175C107.864 0.357557 109.77 -1.44897 113.061 -1.44897C116.413 -1.44897 118.319 0.364358 118.319 3.69243C118.319 7.0205 116.415 8.95355 113.061 8.95355ZM105.611 44.0775V39.4599L108.557 39.0518C109.363 38.9341 109.481 38.7579 109.481 37.8791V20.6994C109.481 20.06 109.308 19.6479 108.73 19.4751L105.611 18.363L106.246 13.6304H118.202V37.8819C118.202 38.8212 118.259 38.9361 119.127 39.0545L122.072 39.4626V44.0789H105.611" fill="#141414"/>
</g>
<mask id="mask1_257_233" style="mask-type:luminance" maskUnits="userSpaceOnUse" x="121" y="4" width="24" height="41">
<path d="M144.909 4.06445H121.438V44.3557H144.909V4.06445Z" fill="white"/>
</mask>
<g mask="url(#mask1_257_233)">
<path d="M144.909 41.8097C142.426 43.034 138.788 44.1475 135.494 44.1475C128.622 44.1475 126.027 41.3438 126.027 34.736V19.4274C126.027 19.0757 126.027 18.8431 125.562 18.8431H121.519V13.6412C126.605 13.0562 128.624 10.4831 129.259 4.11401H134.747V12.4121C134.747 12.8202 134.747 12.9964 135.208 12.9964H143.35V18.8417H134.747V32.8084C134.747 36.2575 135.553 37.6001 138.673 37.6001C140.291 37.6001 141.967 37.192 143.35 36.667L144.909 41.8097Z" fill="#141414"/>
</g>
<mask id="mask2_257_233" style="mask-type:luminance" maskUnits="userSpaceOnUse" x="0" y="-2" width="62" height="62">
<path d="M61.0511 -1.44897H0.000976562V59.8003H61.0511V-1.44897Z" fill="white"/>
</mask>
<g mask="url(#mask2_257_233)">
<path d="M59.3398 26.4734L32.9356 -0.24568C32.574 -0.611611 32.1447 -0.901885 31.6723 -1.09993C31.1999 -1.29797 30.6935 -1.3999 30.1822 -1.3999C29.6708 -1.3999 29.1644 -1.29797 28.692 -1.09993C28.2196 -0.901885 27.7903 -0.611611 27.4288 -0.24568L21.9428 5.30247L28.8974 12.3429C29.7174 12.06 30.5995 12.016 31.443 12.2159C32.2866 12.4157 33.0577 12.8513 33.6684 13.4731C34.2792 14.095 34.705 14.8779 34.8974 15.7327C35.0897 16.5876 35.0409 17.4799 34.7564 18.308L41.4596 25.0934C42.4493 24.7466 43.5259 24.7496 44.5138 25.1018C45.5016 25.454 46.3423 26.1347 46.8986 27.0327C47.4549 27.9307 47.6939 28.993 47.5767 30.0462C47.4595 31.0994 46.993 32.0814 46.2533 32.8317L46.2465 32.8378C45.8169 33.2734 45.3066 33.6191 44.7448 33.8552C44.1831 34.0912 43.5809 34.213 42.9727 34.2135C42.3644 34.214 41.7621 34.0932 41.1999 33.8581C40.6378 33.623 40.127 33.2782 39.6966 32.8432L39.6912 32.8378C39.0447 32.1829 38.6041 31.3492 38.4247 30.4415C38.2453 29.5338 38.3352 28.5927 38.683 27.7365L32.4321 21.4109V38.0601C33.3112 38.4997 34.0298 39.2102 34.4845 40.0893C34.9392 40.9684 35.1065 41.9709 34.9625 42.9523C34.8184 43.9338 34.3703 44.8438 33.6827 45.5512C32.9951 46.2586 32.1034 46.727 31.1361 46.8889C30.1687 47.0509 29.1754 46.8981 28.2993 46.4526C27.4232 46.007 26.7094 45.2917 26.2605 44.4095C25.8117 43.5273 25.651 42.5237 25.8017 41.5432C25.9523 40.5627 26.4064 39.6559 27.0987 38.9532L27.1041 38.9478C27.5369 38.5083 28.0526 38.1614 28.6204 37.9275V21.1191C28.0525 20.8854 27.5368 20.5385 27.1041 20.0989C26.4536 19.4408 26.0112 18.6018 25.8331 17.6886C25.655 16.7754 25.7493 15.8292 26.104 14.9704L19.2482 8.02927L1.14352 26.3497C0.78191 26.7155 0.495064 27.1499 0.299361 27.628C0.103657 28.1061 0.00292969 28.6185 0.00292969 29.136C0.00292969 29.6534 0.103657 30.1659 0.299361 30.6439C0.495064 31.122 0.78191 31.5564 1.14352 31.9223L27.5477 58.6462C28.278 59.385 29.2684 59.8001 30.3011 59.8001C31.3338 59.8001 32.3242 59.385 33.0545 58.6462L59.3391 32.0515C60.0697 31.3118 60.4801 30.3087 60.4801 29.2628C60.4801 28.217 60.0697 27.2139 59.3391 26.4741" fill="#141414"/>
</g>
</svg>
