<svg width="50" height="70" viewBox="0 0 50 70" fill="none" xmlns="http://www.w3.org/2000/svg">
<g clip-path="url(#clip0_257_75)">
<path d="M4.49192 64.3776L0 13.7565H49.359L44.8623 64.3698L24.6491 70L4.49192 64.3776Z" fill="#141414"/>
<path d="M24.6797 65.6963L41.0119 61.1467L44.8556 17.8955H24.6797V65.6963Z" fill="#141414"/>
<path d="M24.6793 36.6704H16.5026L15.9376 30.3138H24.6793V24.1042H9.18457L9.33256 25.7698L10.8512 42.8793H24.6793V36.6704ZM24.6793 52.7945L24.6514 52.8015L17.7701 50.9345L17.3303 45.9831H11.1274L11.9931 55.7311L24.6508 59.2616L24.6787 59.2538L24.6793 52.7945Z" fill="#EBEBEB"/>
<path d="M4.5918 0H7.73199V3.11723H10.6046V0H13.7448V9.43963H10.6046V6.27871H7.73227V9.43963H4.59208V0H4.5918ZM17.8744 3.1304H15.1099V0H23.7808V3.1304H21.014V9.43963H17.8747L17.8744 3.1304ZM25.1567 0H28.431L30.4452 3.31689L32.4575 0H35.7331V9.43963H32.6057V4.76042L30.4452 8.11679H30.3914L28.2292 4.76042V9.43963H25.1567V0ZM37.2958 0H40.4371V6.31932H44.8529V9.43963H37.2958V0Z" fill="#141414"/>
<path d="M24.6585 36.6704V42.8788H32.2672L31.5498 50.9306L24.6582 52.7995V59.2585L37.3257 55.7302L37.4188 54.6815L38.8709 38.3365L39.0216 36.6695H24.6585V36.6704ZM24.6585 24.1042V30.3127H39.5841L39.7081 28.9173L39.9896 25.7698L40.1373 24.1042H24.6585Z" fill="white"/>
</g>
<defs>
<clipPath id="clip0_257_75">
<rect width="49.359" height="70" fill="white"/>
</clipPath>
</defs>
</svg>
