<svg width="421" height="62" viewBox="0 0 421 62" fill="none" xmlns="http://www.w3.org/2000/svg">
<g clip-path="url(#clip0_257_142)">
<path d="M209.091 8.39087L193.566 20.8013H203.695V61.176L209.091 56.9303V8.39087Z" fill="#141414"/>
<path d="M213.532 53.2969L229.306 40.5599H218.928V1.08337L213.574 4.75751V53.2969H213.532Z" fill="#141414"/>
<path d="M408.836 15.6167C410.202 16.2575 411.495 17.0374 412.696 17.9436L418.258 7.49273C415.069 5.63407 411.688 4.11501 408.171 2.9613C404.14 1.59435 399.9 0.917751 395.636 0.960934C391.563 0.916343 387.52 1.63686 383.722 3.08377C380.337 4.34442 377.366 6.48994 375.13 9.28898C373.054 12.0242 372.016 15.4534 372.016 19.5357C372.016 24.108 373.469 27.6188 376.417 30.0683C379.364 32.5177 384.013 34.4364 390.156 35.9877C395.096 37.2533 399.039 38.3963 402.07 39.4577C405.141 40.4375 406.677 42.1113 406.677 44.3974C406.677 47.8266 403.398 49.582 396.798 49.582C393.647 49.6047 390.507 49.2204 387.458 48.439C384.784 47.7722 382.195 46.8137 379.737 45.5813C377.579 44.4382 376.043 43.4176 375.13 42.5195L369.318 53.5827C373.28 56.0199 377.589 57.8636 382.103 59.0531C386.813 60.3829 391.69 61.0562 396.59 61.0535C400.583 61.0796 404.557 60.5153 408.379 59.3797C411.802 58.3301 414.853 56.3485 417.179 53.6644C419.462 51.0109 420.624 47.4592 420.624 43.1319C420.624 39.5394 419.753 36.6817 418.051 34.4772C416.349 32.2728 414.024 30.4357 410.87 29.0885C407.325 27.5918 403.66 26.3901 399.911 25.496C396.208 24.6563 392.551 23.6345 388.952 22.4342C386.503 21.5361 385.3 19.9848 385.3 17.7803C385.3 14.0654 388.662 12.1875 395.386 12.1875C397.861 12.191 400.322 12.5485 402.692 13.2489C404.817 13.8288 406.876 14.6222 408.836 15.6167Z" fill="#141414"/>
<path fill-rule="evenodd" clip-rule="evenodd" d="M295.971 60.7677C291.561 60.8208 287.185 60.0017 283.103 58.3591C279.369 56.7711 275.985 54.4832 273.14 51.6232C270.401 48.8053 268.219 45.5105 266.706 41.9071C265.228 38.3999 264.466 34.6406 264.465 30.8439C264.46 26.9947 265.266 23.1862 266.831 19.6582C268.393 16.0918 270.649 12.8604 273.472 10.1463C276.456 7.2176 280.006 4.90671 283.913 3.35011C287.82 1.7935 292.005 1.02276 296.22 1.0834C300.655 1.02971 305.048 1.93561 309.088 3.73694C312.826 5.33022 316.189 7.66505 318.967 10.5953C321.721 13.3548 323.906 16.6126 325.401 20.1889C326.875 23.6688 327.637 27.4006 327.643 31.1705C327.647 35.0197 326.842 38.8282 325.277 42.3562C323.684 45.9057 321.432 49.1316 318.635 51.8681C315.781 54.6653 312.396 56.8844 308.673 58.3999C304.635 59.9906 300.321 60.7948 295.971 60.7677ZM277.54 30.9256C277.533 34.0801 278.302 37.1896 279.782 39.9884C281.251 42.7699 283.424 45.1321 286.091 46.8468C288.873 48.6022 292.193 49.5004 296.054 49.5004C299.997 49.5004 303.318 48.6022 306.016 46.7652C308.653 44.9532 310.792 42.5267 312.243 39.7027C313.634 36.9484 314.372 33.9194 314.401 30.8439C314.413 27.7148 313.643 24.6307 312.159 21.8627C310.688 19.0767 308.461 16.7455 305.725 15.1268C303.027 13.3713 299.748 12.4732 295.971 12.4732C292.027 12.4732 288.665 13.3713 285.884 15.2084C283.243 16.9815 281.101 19.383 279.657 22.1893C278.266 24.8981 277.54 27.8906 277.54 30.9256Z" fill="#141414"/>
<path fill-rule="evenodd" clip-rule="evenodd" d="M0.587891 60.3595L26.7805 1.36914H37.407L63.4751 60.3595H49.7354L43.7165 46.5202H20.4295L14.4106 60.3595H0.587891ZM32.1353 16.8822L23.3352 35.457H40.6032L32.1353 16.8822Z" fill="#141414"/>
<path d="M114.158 1.36914L130.679 22.2709L147.2 1.36914H161.23L137.528 31.2113L160.483 60.3186H146.411L130.638 40.2742L114.988 60.3186H100.709L123.788 31.2113L99.9619 1.36914H114.158Z" fill="#141414"/>
</g>
<defs>
<clipPath id="clip0_257_142">
<rect width="420.037" height="60.215" fill="white" transform="translate(0.587891 0.960938)"/>
</clipPath>
</defs>
</svg>
