<svg width="70" height="74" viewBox="0 0 70 74" fill="none" xmlns="http://www.w3.org/2000/svg">
<path d="M47.8853 3.40133C52.726 6.37057 56.2901 11.0331 57.8852 16.4832C59.4804 21.9333 58.9928 27.7818 56.517 32.8924C54.0413 38.0031 49.7542 42.011 44.4887 44.1376C39.2232 46.2641 33.3551 46.3575 28.0246 44.3996L27.7635 44.303L28.1891 44.1635L28.7364 43.9847L29.0046 43.8953L29.2728 43.8059L29.7915 43.6342L30.3101 43.4518L30.8179 43.2658L31.3151 43.0798L31.5619 42.9868L32.0483 42.8008C32.5597 42.6006 33.0533 42.3967 33.5325 42.1928L33.8902 42.039L34.3337 41.8459L34.9024 41.5848L35.1778 41.4525L35.5855 41.2558L35.7858 41.1556L35.9825 41.0555L36.3723 40.8552C39.627 39.1492 41.8409 37.2786 43.014 35.2579C45.5176 30.966 43.3288 26.3415 37.0912 21.6418L36.5869 21.252L36.2758 21.0159L35.9789 20.7799L35.6856 20.5474L35.4067 20.3149L35.2672 20.2005L35.1313 20.086L34.8702 19.8571L34.677 19.689L34.4911 19.5209L34.2443 19.3135L34.0118 19.0917L33.7865 18.87L33.6792 18.7627L33.5719 18.6518L33.3644 18.4372C30.8966 15.812 30.3458 13.5695 31.4653 11.6417C32.0375 10.6546 33.0259 9.68775 34.4303 8.74115L34.5984 8.6267L34.8666 8.45502C34.9882 8.37634 35.1134 8.30123 35.2421 8.22612L35.4317 8.11167L35.7286 7.94L36.0361 7.76832L36.2722 7.63957L36.5118 7.51439L36.8409 7.34629C37.0912 7.21753 37.3487 7.09235 37.617 6.96717L37.8852 6.84199L38.2429 6.67747L38.4289 6.59521L38.808 6.43069L39.0011 6.34842L39.3981 6.1839L39.5984 6.10164L40.0061 5.93712L40.2136 5.85843L40.6356 5.69749L41.0684 5.53654L41.2866 5.45428L41.7336 5.29691L42.1879 5.13597L42.6528 4.9786L42.8889 4.89991L43.3824 4.71393L43.8688 4.56014L44.366 4.40277L44.8739 4.24898L45.3889 4.09518L46.047 3.90563L46.7158 3.71607L47.542 3.49432L47.8853 3.40133ZM35.8716 9.52119e-06C38.5734 -0.00245467 41.2543 0.47342 43.7902 1.4056L44.0548 1.50575L43.8867 1.55582L43.0713 1.80618L42.803 1.89202L42.2773 2.06369L41.7622 2.23179L41.2544 2.40704L40.7572 2.57872L40.2672 2.75397L40.0276 2.86127L39.4482 3.06513L38.8724 3.28688L38.411 3.46928L38.1892 3.5587L37.7529 3.74468C33.3001 5.64026 30.3816 7.76832 28.9867 10.1825C26.5725 14.4029 28.7614 18.9558 35.0025 23.6447L35.514 24.0238L35.8216 24.2599L36.122 24.4959L36.2686 24.614L36.5548 24.8465L36.7622 25.0181L36.9661 25.1898L37.2307 25.4187L37.3595 25.5332L37.6063 25.7585C37.7457 25.8837 37.8781 26.0088 38.0068 26.1161L38.1964 26.3021L38.4682 26.5775L38.7257 26.8493C41.1793 29.5067 41.705 31.7957 40.5212 33.8165C39.7808 35.1255 38.3395 36.4131 36.2293 37.6613L36.0326 37.7758L35.7178 37.9546L35.3924 38.1334C35.21 38.2336 35.0347 38.3301 34.8273 38.4303L34.5376 38.5769L34.1799 38.7557L33.8222 38.931L33.4431 39.1062L33.25 39.1921L32.8602 39.3673L32.4596 39.5426L32.0483 39.7143L31.8408 39.8001L31.4152 39.9753L31.2006 40.0612L30.9825 40.1434L30.539 40.3151L30.0883 40.4868L29.6234 40.6549L29.1548 40.823L28.672 40.9911L28.4288 41.0769L27.9352 41.245L27.6849 41.3273L27.1734 41.4918L26.6584 41.6563L25.9967 41.8638L25.3207 42.0676L24.7699 42.2286L24.001 42.4503C19.7342 39.8569 16.4324 35.9394 14.599 31.2951C12.7655 26.6508 12.501 21.5343 13.8457 16.7257C15.1904 11.917 18.0705 7.6799 22.0471 4.66025C26.0236 1.6406 30.8785 0.00403248 35.8716 9.52119e-06Z" fill="#141414"/>
<path d="M11.25 60.8181H7.72727C7.74621 60.5908 7.70597 60.3967 7.60653 60.2357C7.5071 60.0747 7.36742 59.9516 7.1875 59.8664C7.01231 59.7811 6.81345 59.7385 6.59091 59.7385C6.20265 59.7385 5.84991 59.8261 5.53267 60.0013C5.21544 60.1718 5.03788 60.3967 5 60.676C4.97633 60.7849 5.01184 60.8867 5.10653 60.9814C5.20123 61.0761 5.44981 61.1637 5.85227 61.2442L8.01136 61.6419C9.09091 61.8408 9.87689 62.203 10.3693 62.7286C10.8665 63.2494 11.0464 63.9383 10.9091 64.7953C10.7813 65.5387 10.4545 66.1779 9.92898 66.713C9.40341 67.248 8.7358 67.6599 7.92614 67.9488C7.12121 68.2328 6.23106 68.3749 5.25568 68.3749C3.53693 68.3749 2.24905 68.0316 1.39205 67.3451C0.539773 66.6585 0.151515 65.7613 0.227273 64.6533H4.03409C4.04356 65.0084 4.16193 65.2759 4.3892 65.4559C4.62121 65.631 4.92898 65.7234 5.3125 65.7328C5.72917 65.747 6.09375 65.6642 6.40625 65.4843C6.71875 65.2996 6.89394 65.07 6.93182 64.7953C6.94602 64.6391 6.87737 64.5207 6.72585 64.4402C6.57907 64.3597 6.29735 64.2792 5.88068 64.1988L4.00568 63.8578C2.92614 63.6637 2.14015 63.2755 1.64773 62.6931C1.1553 62.1059 0.984849 61.3578 1.13636 60.4488C1.25947 59.7243 1.55303 59.1159 2.01705 58.6235C2.4858 58.131 3.10133 57.7594 3.86364 57.5084C4.62595 57.2527 5.50663 57.1249 6.50568 57.1249C8.1392 57.1249 9.375 57.454 10.2131 58.1121C11.0559 58.7655 11.4015 59.6675 11.25 60.8181ZM13.7749 68.176L12.8658 57.2669H16.7862L16.9283 63.9147H17.0135L19.5135 57.2669H23.3203L23.6612 63.8578H23.7464L26.0476 57.2669H29.968L25.4226 68.176H21.1896L20.6214 62.3238H20.5078L18.0078 68.176H13.7749ZM29.343 68.176L31.1612 57.2669H35.0817L33.2635 68.176H29.343ZM33.2919 56.1306C32.7616 56.1306 32.3331 55.9554 32.0064 55.605C31.6797 55.2499 31.5589 54.8285 31.6442 54.3408C31.7294 53.8436 31.9898 53.4222 32.4254 53.0766C32.861 52.7262 33.344 52.551 33.8743 52.551C34.4093 52.551 34.8355 52.7262 35.1527 53.0766C35.4699 53.4222 35.5883 53.8436 35.5078 54.3408C35.4321 54.8285 35.1764 55.2499 34.7408 55.605C34.3099 55.9554 33.8269 56.1306 33.2919 56.1306ZM34.6076 72.2669L37.1218 57.2669H41.0138L40.7013 59.1703H40.7866C40.9854 58.801 41.2459 58.4625 41.5678 58.1547C41.8945 57.8422 42.2781 57.5936 42.7184 57.409C43.1635 57.2196 43.6559 57.1249 44.1957 57.1249C44.9154 57.1249 45.5664 57.3167 46.1488 57.7002C46.7312 58.0837 47.1597 58.6874 47.4343 59.5113C47.7089 60.3351 47.7373 61.4052 47.5195 62.7215C47.3112 63.9809 46.9395 65.025 46.4045 65.8536C45.8742 66.6822 45.2492 67.3001 44.5295 67.7073C43.8145 68.1145 43.0688 68.3181 42.2923 68.3181C41.7809 68.3181 41.3382 68.2352 40.9641 68.0695C40.5901 67.899 40.2894 67.6694 40.0621 67.3806C39.8349 67.087 39.6786 66.7556 39.5934 66.3863H39.5082L38.5423 72.2669H34.6076ZM40.0479 62.7215C39.9627 63.2518 39.9556 63.7111 40.0266 64.0993C40.1024 64.4828 40.2515 64.7811 40.4741 64.9942C40.7013 65.2025 40.9949 65.3067 41.3548 65.3067C41.7146 65.3067 42.0366 65.2049 42.3207 65.0013C42.6048 64.793 42.8462 64.497 43.0451 64.1135C43.244 63.7253 43.3907 63.2613 43.4854 62.7215C43.5707 62.1817 43.5778 61.7201 43.5067 61.3365C43.4357 60.9483 43.2913 60.6524 43.0735 60.4488C42.8557 60.2404 42.5669 60.1363 42.207 60.1363C41.8472 60.1363 41.5181 60.2404 41.2198 60.4488C40.9263 60.6524 40.6777 60.9483 40.4741 61.3365C40.2752 61.7201 40.1332 62.1817 40.0479 62.7215ZM53.4482 68.3749C52.2834 68.3749 51.3175 68.1524 50.5504 67.7073C49.7834 67.2575 49.2436 66.6135 48.9311 65.7755C48.6186 64.9327 48.5618 63.9241 48.7607 62.7499C48.95 61.623 49.3407 60.6381 49.9325 59.7953C50.5291 58.9525 51.2796 58.2968 52.1839 57.828C53.093 57.3593 54.111 57.1249 55.2379 57.1249C56.0618 57.1249 56.7839 57.2527 57.4041 57.5084C58.0291 57.7641 58.5381 58.1358 58.9311 58.6235C59.3241 59.1112 59.5893 59.7006 59.7266 60.3919C59.8686 61.0785 59.8686 61.855 59.7266 62.7215L59.5845 63.6306H49.8402L50.1811 61.4715H56.3175C56.3648 61.159 56.334 60.8844 56.2251 60.6476C56.121 60.4061 55.9529 60.2191 55.7209 60.0865C55.4936 59.9492 55.219 59.8806 54.897 59.8806C54.575 59.8806 54.272 59.9492 53.9879 60.0865C53.7086 60.2238 53.4695 60.4156 53.2706 60.6618C53.0765 60.908 52.9463 61.1969 52.88 61.5283L52.4538 63.801C52.397 64.1514 52.4183 64.4639 52.5178 64.7385C52.6172 65.0131 52.79 65.2286 53.0362 65.3848C53.2824 65.5411 53.5997 65.6192 53.9879 65.6192C54.2531 65.6192 54.504 65.5837 54.7408 65.5127C54.9822 65.4369 55.1953 65.328 55.38 65.186C55.5694 65.0392 55.7209 64.8616 55.8345 64.6533H59.4141C59.1584 65.4109 58.7536 66.069 58.1996 66.6277C57.6503 67.1817 56.9732 67.6126 56.1683 67.9203C55.3681 68.2234 54.4614 68.3749 53.4482 68.3749ZM60.4173 68.176L62.2354 57.2669H66.0423L65.7013 59.3408H65.815C66.1417 58.5738 66.5513 58.0127 67.0437 57.6576C67.5361 57.3024 68.0735 57.1249 68.6559 57.1249C68.8263 57.1249 68.9897 57.1391 69.146 57.1675C69.3069 57.1912 69.4656 57.2243 69.6218 57.2669L69.0536 60.6192C68.869 60.5482 68.6393 60.4985 68.3647 60.4701C68.0901 60.4369 67.8462 60.4203 67.6332 60.4203C67.2544 60.4203 66.8993 60.5079 66.5678 60.6831C66.2411 60.8536 65.9618 61.0951 65.7298 61.4076C65.5025 61.7153 65.351 62.0775 65.2752 62.4942L64.3377 68.176H60.4173Z" fill="#141414"/>
</svg>
