<svg width="114" height="62" viewBox="0 0 114 62" fill="none" xmlns="http://www.w3.org/2000/svg">
<g clip-path="url(#clip0_257_151)">
<path d="M35.1907 40.9448C37.2043 40.9448 39.1726 40.357 40.8469 39.2556C42.5211 38.1543 43.826 36.5889 44.5965 34.7575C45.3671 32.926 45.5687 30.9108 45.1759 28.9665C44.7831 27.0222 43.8134 25.2363 42.3896 23.8346C40.9658 22.4328 39.1518 21.4783 37.1769 21.0915C35.202 20.7048 33.155 20.9033 31.2947 21.6619C29.4344 22.4205 27.8444 23.7052 26.7258 25.3534C25.6071 27.0017 25.01 28.9395 25.01 30.9219C25.01 33.5801 26.0826 36.1295 27.9919 38.0092C29.9011 39.8888 32.4906 40.9448 35.1907 40.9448ZM11.1222 60.9893C13.1357 60.9893 15.1041 60.4015 16.7783 59.3001C18.4525 58.1988 19.7574 56.6334 20.528 54.802C21.2985 52.9705 21.5001 50.9553 21.1073 49.011C20.7145 47.0667 19.7448 45.2808 18.321 43.8791C16.8972 42.4773 15.0832 41.5228 13.1083 41.136C11.1335 40.7493 9.08645 40.9478 7.22616 41.7064C5.36587 42.465 3.77585 43.7497 2.65717 45.3979C1.5385 47.0462 0.941406 48.984 0.941406 50.9664C0.941222 52.2826 1.20443 53.5861 1.71599 54.8022C2.22756 56.0183 2.97746 57.1233 3.92287 58.0541C4.86828 58.9848 5.99067 59.7231 7.22594 60.2267C8.46121 60.7304 9.78515 60.9895 11.1222 60.9893ZM103.054 60.9893C105.067 60.991 107.037 60.4045 108.712 59.3042C110.387 58.2038 111.693 56.639 112.465 54.8077C113.237 52.9764 113.44 50.9609 113.048 49.0161C112.656 47.0713 111.687 45.2846 110.264 43.882C108.84 42.4795 107.026 41.524 105.051 41.1366C103.076 40.7492 101.029 40.9472 99.1679 41.7056C97.3071 42.464 95.7166 43.7486 94.5976 45.3971C93.4785 47.0455 92.8812 48.9837 92.8812 50.9664C92.8812 53.6232 93.9527 56.1713 95.8601 58.0507C97.7676 59.9302 100.355 60.9871 103.054 60.9893Z" fill="white"/>
<path d="M69.618 31.3448C69.2924 27.9951 69.1268 25.2091 66.5202 23.2496C63.2216 20.7691 59.4836 22.379 54.8782 20.7428C50.3542 19.6649 46.998 15.7099 46.998 10.9963C46.998 5.45346 51.6386 0.960894 57.3683 0.960894C59.3686 0.953168 61.3285 1.51492 63.012 2.5785C64.6955 3.64208 66.0308 5.16213 66.857 6.95559C69.3149 11.5504 67.7175 16.2268 70.8041 18.5815C74.4537 21.3702 79.3875 19.3291 84.8871 21.9713C86.6421 22.7646 88.137 24.0248 89.2033 25.6099C90.291 27.2288 90.87 29.1274 90.8681 31.0684C90.8681 35.7821 87.5133 39.7371 82.9893 40.8136C78.3839 42.4498 74.646 40.8412 71.3474 43.3217C67.6361 46.1104 69.6223 50.784 66.5988 55.7077C65.7151 57.3629 64.3873 58.7479 62.7599 59.712C61.1324 60.6761 59.2676 61.1824 57.3683 61.1759C51.6442 61.1759 47.0037 56.682 47.0037 51.1406C47.011 49.2192 47.5788 47.3404 48.6393 45.7274C49.6998 44.1145 51.2085 42.8354 52.9861 42.0421C58.4856 39.3999 63.4139 41.4424 67.069 38.6537C69.1717 37.0451 69.618 34.5632 69.618 31.3448Z" fill="#141414"/>
</g>
<defs>
<clipPath id="clip0_257_151">
<rect width="112.293" height="60.215" fill="white" transform="translate(0.941406 0.960938)"/>
</clipPath>
</defs>
</svg>
