<svg width="113" height="71" viewBox="0 0 113 71" fill="none" xmlns="http://www.w3.org/2000/svg">
<g clip-path="url(#clip0_308_447)">
<path d="M31.5858 26.2668C31.5858 27.6068 31.7315 28.6932 31.9864 29.4899C32.2777 30.2867 32.6419 31.1559 33.1518 32.0974C33.3338 32.3872 33.4067 32.6769 33.4067 32.9304C33.4067 33.2925 33.1882 33.6547 32.7148 34.0169L30.4204 35.538C30.0927 35.7554 29.7649 35.8639 29.4736 35.8639C29.1094 35.8639 28.7452 35.6829 28.3811 35.3567C27.8712 34.8136 27.4342 34.2342 27.07 33.6547C26.7059 33.039 26.3417 32.3509 25.9411 31.518C23.1005 34.8498 19.5316 36.5156 15.2343 36.5156C12.1752 36.5156 9.73523 35.6465 7.95075 33.9082C6.16628 32.1699 5.25586 29.8521 5.25586 26.9549C5.25586 23.8766 6.34838 21.3777 8.56987 19.4945C10.7913 17.6113 13.7412 16.6697 17.4922 16.6697C18.7304 16.6697 20.005 16.7784 21.3525 16.9594C22.6999 17.1405 24.0838 17.4302 25.5405 17.7562V15.1125C25.5405 12.3601 24.9578 10.4407 23.8289 9.318C22.6635 8.19534 20.6969 7.65211 17.8928 7.65211C16.6182 7.65211 15.3071 7.79697 13.9597 8.12289C12.6122 8.44885 11.3012 8.84722 10.0266 9.35423C9.44389 9.60773 9.00688 9.7526 8.75194 9.82501C8.49703 9.89746 8.31493 9.93365 8.16926 9.93365C7.65941 9.93365 7.40447 9.57151 7.40447 8.81099V7.03642C7.40447 6.457 7.47731 6.0224 7.65941 5.7689C7.84152 5.51539 8.16926 5.26189 8.6791 5.00838C9.95373 4.35651 11.4833 3.81327 13.2677 3.37869C15.0522 2.90789 16.9459 2.6906 18.9489 2.6906C23.2826 2.6906 26.4509 3.66841 28.4903 5.62403C30.4933 7.57966 31.513 10.5493 31.513 14.533V26.2668H31.5858ZM16.8003 31.7715C18.002 31.7715 19.2402 31.5542 20.5513 31.1196C21.8623 30.685 23.0277 29.8883 24.0109 28.8018C24.5936 28.1138 25.0306 27.3533 25.2492 26.4841C25.4677 25.6149 25.6133 24.5647 25.6133 23.3333V21.8123C24.5572 21.5588 23.4282 21.3415 22.2629 21.1966C21.0975 21.0518 19.9686 20.9793 18.8396 20.9793C16.3996 20.9793 14.6152 21.4501 13.4134 22.428C12.2116 23.4058 11.6289 24.7819 11.6289 26.5927C11.6289 28.2948 12.0659 29.5624 12.9764 30.4315C13.8504 31.3369 15.125 31.7715 16.8003 31.7715ZM46.0435 35.6829C45.3879 35.6829 44.9511 35.5741 44.6596 35.3207C44.3684 35.1033 44.1136 34.5963 43.8948 33.9082L35.3368 5.91376C35.1183 5.18944 35.0091 4.71865 35.0091 4.46515C35.0091 3.88569 35.3004 3.55976 35.883 3.55976H39.4519C40.1439 3.55976 40.6174 3.66841 40.8722 3.92191C41.1638 4.13919 41.3822 4.64624 41.6006 5.3343L47.7189 29.3089L53.4001 5.3343C53.5821 4.61001 53.8005 4.13919 54.0917 3.92191C54.3833 3.70463 54.8932 3.55976 55.5488 3.55976H58.4622C59.1538 3.55976 59.6273 3.66841 59.9189 3.92191C60.2101 4.13919 60.4649 4.64624 60.6108 5.3343L66.3645 29.5986L72.6648 5.3343C72.8832 4.61001 73.1384 4.13919 73.3932 3.92191C73.6847 3.70463 74.1579 3.55976 74.8135 3.55976H78.2004C78.7832 3.55976 79.1108 3.8495 79.1108 4.46515C79.1108 4.64624 79.0744 4.82729 79.038 5.04461C79.0016 5.26189 78.9288 5.55162 78.7832 5.94999L70.0066 33.9444C69.7879 34.6687 69.533 35.1395 69.2415 35.3567C68.9503 35.5741 68.4767 35.719 67.8579 35.719H64.7258C64.0338 35.719 63.5606 35.6105 63.2691 35.3567C62.9779 35.1033 62.7227 34.6325 62.5771 33.9082L56.9323 10.5493L51.3243 33.872C51.1419 34.5963 50.9235 35.0671 50.6323 35.3207C50.3408 35.5741 49.8312 35.6829 49.1756 35.6829H46.0435ZM92.8402 36.6605C90.9467 36.6605 89.0529 36.4435 87.2318 36.0088C85.4111 35.5741 83.9908 35.1033 83.0441 34.5601C82.4613 34.2342 82.0606 33.872 81.915 33.5461C81.7694 33.2201 81.6966 32.858 81.6966 32.532V30.685C81.6966 29.9245 81.9878 29.5624 82.5342 29.5624C82.7526 29.5624 82.9709 29.5986 83.1897 29.671C83.4081 29.7434 83.736 29.8883 84.1 30.0332C85.3383 30.5764 86.6858 31.011 88.1061 31.3007C89.5628 31.5904 90.9832 31.7353 92.4399 31.7353C94.7341 31.7353 96.5184 31.3369 97.7567 30.5402C98.995 29.7434 99.6505 28.5846 99.6505 27.0997C99.6505 26.0857 99.3226 25.2528 98.667 24.5647C98.0115 23.8766 96.7735 23.2609 94.9889 22.6815L89.7084 21.0518C87.0498 20.2188 85.0832 18.9875 83.8816 17.3578C82.6797 15.7643 82.0606 13.9898 82.0606 12.1066C82.0606 10.5855 82.3885 9.24559 83.0441 8.08667C83.6993 6.92778 84.5736 5.91376 85.666 5.11702C86.7587 4.28406 87.9966 3.66841 89.4533 3.23382C90.91 2.79924 92.4399 2.61816 94.0422 2.61816C94.8433 2.61816 95.6808 2.65438 96.482 2.76303C97.3195 2.87167 98.0843 3.01653 98.849 3.1614C99.5774 3.34247 100.269 3.52355 100.925 3.74082C101.58 3.95814 102.09 4.17542 102.454 4.3927C102.964 4.68243 103.329 4.97216 103.547 5.29811C103.765 5.58781 103.875 5.98618 103.875 6.49319V8.19534C103.875 8.95586 103.583 9.35423 103.037 9.35423C102.746 9.35423 102.272 9.20936 101.653 8.91963C99.5774 7.97803 97.2467 7.50724 94.6613 7.50724C92.5854 7.50724 90.9467 7.83316 89.8176 8.52126C88.6885 9.20936 88.1061 10.2596 88.1061 11.7444C88.1061 12.7585 88.4701 13.6276 89.1985 14.3157C89.9268 15.0038 91.2743 15.6919 93.2046 16.3076L98.3758 17.9372C100.998 18.7702 102.892 19.9291 104.021 21.4139C105.149 22.8987 105.696 24.6009 105.696 26.4841C105.696 28.0413 105.368 29.4537 104.749 30.685C104.093 31.9164 103.219 33.0028 102.09 33.872C100.961 34.7774 99.6141 35.4292 98.0479 35.8999C96.4092 36.4071 94.6977 36.6605 92.8402 36.6605Z" fill="#141414"/>
<path fill-rule="evenodd" clip-rule="evenodd" d="M99.7232 54.2617C87.742 63.0621 70.3344 67.7339 55.3666 67.7339C34.3901 67.7339 15.4893 60.0199 1.2136 47.1998C0.0846584 46.1855 1.10435 44.8093 2.4518 45.6062C17.8929 54.5151 36.9391 59.9111 56.6413 59.9111C69.9336 59.9111 84.537 57.159 97.9753 51.5093C99.9783 50.6039 101.69 52.8131 99.7232 54.2617Z" fill="#141414"/>
<path fill-rule="evenodd" clip-rule="evenodd" d="M104.712 48.6118C103.182 46.656 94.588 47.6703 90.6911 48.1411C89.5259 48.286 89.3439 47.2717 90.3998 46.5115C97.2462 41.7308 108.499 43.107 109.81 44.7006C111.121 46.3302 109.446 57.5207 103.037 62.8806C102.053 63.7136 101.107 63.2789 101.543 62.1925C103 58.6071 106.242 50.5312 104.712 48.6118Z" fill="#141414"/>
</g>
<defs>
<clipPath id="clip0_308_447">
<rect width="112" height="70" fill="white" transform="translate(0.454102 0.175781)"/>
</clipPath>
</defs>
</svg>
