<svg width="62" height="60" viewBox="0 0 62 60" fill="none" xmlns="http://www.w3.org/2000/svg">
<path d="M57.4086 15.2365C54.6812 10.6034 50.9817 6.93525 46.309 4.23141C41.6357 1.52743 36.5338 0.175781 30.9997 0.175781C25.4663 0.175781 20.3628 1.52784 15.6904 4.23141C11.0173 6.93511 7.31793 10.6034 4.59054 15.2365C1.86356 19.8696 0.5 24.9289 0.5 30.4144C0.5 37.0037 2.439 42.9289 6.31797 48.1917C10.1965 53.4548 15.207 57.0967 21.3491 59.1178C22.0641 59.2494 22.5933 59.1568 22.9374 58.8425C23.2817 58.5278 23.4536 58.1337 23.4536 57.6617C23.4536 57.583 23.4468 56.8746 23.4336 55.5356C23.42 54.1966 23.4136 53.0286 23.4136 52.0319L22.5001 52.1886C21.9177 52.2943 21.183 52.3392 20.296 52.3265C19.4094 52.3142 18.489 52.2221 17.5361 52.0508C16.5827 51.881 15.696 51.4873 14.8752 50.8704C14.0548 50.2536 13.4724 49.4461 13.1281 48.4493L12.731 47.5432C12.4663 46.94 12.0496 46.2699 11.4802 45.5354C10.9109 44.8002 10.3352 44.3018 9.75281 44.0394L9.47475 43.842C9.28948 43.7109 9.11755 43.5527 8.95857 43.3691C8.79972 43.1856 8.68079 43.0019 8.60137 42.8179C8.52181 42.6338 8.58774 42.4828 8.79986 42.3643C9.01198 42.2459 9.39533 42.1884 9.95157 42.1884L10.7455 42.306C11.2751 42.4112 11.9301 42.7255 12.7114 43.2508C13.4923 43.7757 14.1342 44.4581 14.6373 45.2977C15.2465 46.3742 15.9806 47.1945 16.8414 47.7589C17.7016 48.3234 18.5689 48.6051 19.4424 48.6051C20.3159 48.6051 21.0704 48.5395 21.706 48.4089C22.341 48.2776 22.9367 48.0802 23.493 47.8179C23.7313 46.0585 24.38 44.7069 25.4387 43.762C23.9298 43.6048 22.5731 43.368 21.3682 43.0532C20.1639 42.7379 18.9194 42.2263 17.6355 41.5169C16.351 40.8084 15.2854 39.9287 14.4384 38.8792C13.5913 37.8292 12.8961 36.4507 12.3538 34.7449C11.8111 33.0384 11.5398 31.0699 11.5398 28.8388C11.5398 25.662 12.5858 22.9588 14.6774 20.7274C13.6976 18.3391 13.7901 15.6617 14.9551 12.6956C15.7229 12.4591 16.8616 12.6365 18.3705 13.2269C19.8797 13.8176 20.9847 14.3236 21.6865 14.7431C22.3884 15.1625 22.9508 15.5179 23.3745 15.8061C25.8372 15.1239 28.3786 14.7827 30.9994 14.7827C33.6203 14.7827 36.1623 15.1239 38.6251 15.8061L40.1342 14.8616C41.1661 14.2313 42.3847 13.6538 43.7871 13.1287C45.1903 12.604 46.2633 12.4595 47.0049 12.696C48.1959 15.6623 48.302 18.3395 47.3219 20.7278C49.4134 22.9592 50.4598 25.6631 50.4598 28.8392C50.4598 31.0703 50.1875 33.045 49.6457 34.7646C49.1032 36.4845 48.402 37.8616 47.5419 38.899C46.6807 39.9362 45.6083 40.809 44.3244 41.5173C43.0403 42.2262 41.7954 42.7378 40.5911 43.0531C39.3862 43.3683 38.0296 43.6052 36.5207 43.7627C37.8969 44.9435 38.5852 46.8074 38.5852 49.3534V57.6606C38.5852 58.1326 38.7507 58.5266 39.082 58.8414C39.4129 59.1557 39.9355 59.2483 40.6505 59.1166C46.7934 57.0958 51.8039 53.4537 55.6823 48.1906C59.5603 42.9278 61.5 37.0026 61.5 30.4133C61.4986 24.9285 60.1344 19.8696 57.4086 15.2365Z" fill="#F0F0F0"/>
</svg>
