<svg width="74" height="71" viewBox="0 0 74 71" fill="none" xmlns="http://www.w3.org/2000/svg">
<path d="M68.5889 18.0447C65.3453 12.5477 60.9455 8.19574 55.3885 4.98779C49.8306 1.77967 43.7631 0.176025 37.1816 0.176025C30.6009 0.176025 24.5314 1.78016 18.9747 4.98779C13.4171 8.19557 9.01754 12.5477 5.77393 18.0447C2.53082 23.5416 0.90918 29.5442 0.90918 36.0523C0.90918 43.8701 3.21517 50.9001 7.82831 57.144C12.441 63.3885 18.3998 67.7094 25.7044 70.1072C26.5547 70.2633 27.1841 70.1535 27.5933 69.7806C28.0028 69.4073 28.2072 68.9396 28.2072 68.3797C28.2072 68.2863 28.1991 67.4458 28.1834 65.8572C28.1672 64.2686 28.1596 62.8827 28.1596 61.7002L27.0733 61.8861C26.3806 62.0116 25.5069 62.0648 24.452 62.0497C23.3976 62.0352 22.303 61.9259 21.1697 61.7226C20.0358 61.5212 18.9813 61.0541 18.0051 60.3222C17.0295 59.5903 16.3368 58.6323 15.9274 57.4497L15.4551 56.3747C15.1403 55.659 14.6447 54.864 13.9676 53.9925C13.2906 53.1203 12.6059 52.529 11.9133 52.2176L11.5826 51.9834C11.3622 51.8278 11.1578 51.6402 10.9687 51.4224C10.7798 51.2046 10.6383 50.9867 10.5439 50.7684C10.4493 50.55 10.5277 50.3708 10.78 50.2302C11.0322 50.0897 11.4881 50.0215 12.1497 50.0215L13.0939 50.161C13.7236 50.2859 14.5026 50.6588 15.4318 51.282C16.3605 51.9047 17.1239 52.7143 17.7222 53.7105C18.4468 54.9877 19.3197 55.9609 20.3435 56.6306C21.3665 57.3003 22.3979 57.6346 23.4368 57.6346C24.4756 57.6346 25.3729 57.5567 26.1289 57.4017C26.884 57.246 27.5925 57.0118 28.254 56.7006C28.5374 54.6132 29.3089 53.0095 30.568 51.8885C28.7735 51.702 27.1601 51.4211 25.727 51.0475C24.2948 50.6735 22.8148 50.0665 21.2879 49.2248C19.7603 48.3843 18.4929 47.3405 17.4857 46.0954C16.4783 44.8496 15.6515 43.214 15.0065 41.1902C14.3612 39.1656 14.0384 36.83 14.0384 34.183C14.0384 30.414 15.2824 27.2067 17.7699 24.5593C16.6046 21.7257 16.7147 18.5492 18.1002 15.03C19.0134 14.7494 20.3675 14.96 22.162 15.6604C23.9569 16.3612 25.271 16.9616 26.1057 17.4593C26.9404 17.9569 27.6092 18.3785 28.1131 18.7205C31.0419 17.911 34.0644 17.5062 37.1812 17.5062C40.2981 17.5062 43.3212 17.911 46.2502 18.7205L48.0449 17.5998C49.2722 16.8521 50.7214 16.1668 52.3892 15.5439C54.058 14.9214 55.3341 14.7499 56.2161 15.0305C57.6325 18.5498 57.7587 21.7262 56.5931 24.5598C59.0804 27.2072 60.3249 30.4153 60.3249 34.1835C60.3249 36.8305 60.001 39.1734 59.3566 41.2136C58.7115 43.2541 57.8776 44.888 56.8546 46.1188C55.8305 47.3494 54.5551 48.3849 53.0282 49.2253C51.5011 50.0663 50.0205 50.6733 48.5883 51.0474C47.1554 51.4214 45.542 51.7025 43.7475 51.8894C45.3842 53.2903 46.2027 55.5016 46.2027 58.5224V68.3784C46.2027 68.9383 46.3996 69.4058 46.7936 69.7793C47.1872 70.1522 47.8087 70.262 48.6589 70.1058C55.9645 67.7082 61.9234 63.3872 66.5358 57.1427C71.1478 50.8988 73.4546 43.8688 73.4546 36.051C73.453 29.5437 71.8305 23.5416 68.5889 18.0447Z" fill="#141414"/>
</svg>
