<svg width="141" height="69" viewBox="0 0 141 69" fill="none" xmlns="http://www.w3.org/2000/svg">
<g clip-path="url(#clip0_257_175)">
<path d="M78.4834 2.52249C77.1612 1.82173 75.8634 1.08142 74.5606 0.350246C74.4199 0.255032 74.2879 0.147808 74.1659 0.0297852L73.6096 0.0297852C73.5394 0.349232 73.4062 0.668679 73.4062 0.98914C73.3919 4.78194 73.397 8.57372 73.396 12.3665C73.396 13.1048 73.1926 13.2184 72.5447 12.8462C72.0219 12.546 71.5002 12.2448 70.9794 11.9426C70.6072 11.7266 70.2369 11.7043 69.8606 11.9223C67.2305 13.4368 64.5993 14.9488 61.9671 16.4585C61.7975 16.5501 61.6576 16.6879 61.5636 16.8558C61.4696 17.0236 61.4254 17.2147 61.4362 17.4067C61.4362 20.3895 61.4362 23.3724 61.4362 26.3553C61.4265 26.5701 61.4788 26.7832 61.587 26.9692C61.6952 27.1553 61.8546 27.3065 62.0464 27.4049C64.5718 28.8469 67.0982 30.287 69.6043 31.7656C70.1851 32.1083 70.659 32.0749 71.2164 31.7504C73.6574 30.3259 76.1075 28.9159 78.5668 27.5205C79.114 27.2102 79.3357 26.8197 79.3347 26.1829C79.3178 18.7717 79.3178 11.3605 79.3347 3.94935C79.3388 3.24859 79.0815 2.8399 78.4834 2.52249ZM73.3929 21.9185C73.3929 22.3576 73.3929 22.7967 73.3929 23.2368C73.4021 23.3523 73.3769 23.4679 73.3204 23.5691C73.264 23.6703 73.1788 23.7526 73.0756 23.8058C72.2796 24.2567 71.4863 24.7117 70.6956 25.1708C70.5976 25.2331 70.4835 25.2658 70.3672 25.2647C70.251 25.2636 70.1375 25.2289 70.0406 25.1647C69.2494 24.7063 68.4459 24.2672 67.6688 23.7855C67.5838 23.724 67.5127 23.6454 67.4601 23.5547C67.4075 23.464 67.3747 23.3633 67.3637 23.2592C67.3332 22.3708 67.3525 21.4804 67.3484 20.591C67.3395 20.4698 67.3672 20.3487 67.4279 20.2433C67.4887 20.138 67.5796 20.0531 67.6892 19.9998C68.4967 19.5465 69.2911 19.0678 70.1057 18.6287C70.1903 18.5908 70.282 18.5713 70.3748 18.5713C70.4675 18.5713 70.5592 18.5908 70.6438 18.6287C71.4676 19.0769 72.2813 19.5414 73.0766 20.0403C73.1585 20.1047 73.2266 20.1846 73.2771 20.2755C73.3276 20.3664 73.3594 20.4664 73.3706 20.5697C73.4133 21.0169 73.3848 21.4703 73.3848 21.9205L73.3929 21.9185Z" fill="#141414"/>
<path d="M35.0226 16.1462C32.4772 14.6933 29.9345 13.235 27.3945 11.7713C26.8972 11.4833 26.4537 11.4995 25.9615 11.7875C24.3209 12.7459 22.6549 13.6606 21.0245 14.6352C19.9169 15.2974 18.6995 15.7872 17.7363 16.6796V29.6532C18.1065 29.921 18.4381 29.8469 18.8195 29.6218C20.1661 28.8267 21.5219 28.0448 22.897 27.3005C23.494 26.977 23.731 26.5389 23.7229 25.8807C23.7005 24.1699 23.7351 22.4581 23.7056 20.7473C23.6944 20.156 23.9364 19.792 24.4307 19.5252C24.981 19.2271 25.5261 18.9168 26.0581 18.5912C26.4781 18.3326 26.8778 18.3245 27.2989 18.574C27.8573 18.9056 28.4177 19.2413 28.9862 19.5435C29.5121 19.8203 29.7114 20.2311 29.7063 20.8132C29.689 22.5818 29.7063 24.3504 29.6962 26.119C29.6962 26.6078 29.8772 26.9486 30.3115 27.192C31.7873 28.0195 33.2498 28.8673 34.7226 29.6999C35.2962 30.0244 35.6156 29.8408 35.6166 29.1928C35.6166 25.1931 35.6196 21.1931 35.6257 17.1928C35.6387 16.9787 35.5885 16.7654 35.4813 16.5795C35.3741 16.3935 35.2147 16.2429 35.0226 16.1462Z" fill="#141414"/>
<path d="M100.624 16.3135C98.0532 14.814 95.4786 13.3199 92.9007 11.8311C92.4755 11.5837 92.087 11.603 91.6588 11.8494C89.1134 13.3253 86.5629 14.7917 84.0073 16.2486C83.5547 16.5072 83.3452 16.852 83.3462 17.3702C83.3544 20.3288 83.3544 23.2876 83.3462 26.2468C83.335 26.461 83.3868 26.6737 83.4952 26.8589C83.6036 27.0442 83.7639 27.1937 83.9565 27.2893C86.4971 28.7267 89.0348 30.1691 91.5693 31.6166C92.0189 31.8752 92.4247 31.8975 92.8753 31.6419C93.8527 31.0882 94.8403 30.5517 95.8248 30.0082C96.3516 29.7171 96.8815 29.4311 97.4033 29.1299C97.8579 28.8683 97.8579 28.4687 97.4145 28.1848C97.3463 28.1412 97.2741 28.1037 97.2039 28.0631C94.6999 26.6318 92.1952 25.2016 89.6898 23.7724C89.3918 23.603 89.2046 23.389 89.2056 23.0361C89.2056 22.1924 89.2056 21.3486 89.2056 20.5008C89.2017 20.3615 89.238 20.224 89.3101 20.1047C89.3822 19.9853 89.4871 19.8891 89.6125 19.8274C90.3397 19.4218 91.0638 19.004 91.7799 18.577C91.9089 18.4888 92.0617 18.4415 92.2182 18.4415C92.3747 18.4415 92.5275 18.4888 92.6566 18.577C93.334 18.9827 94.0113 19.3822 94.706 19.7524C95.0955 19.9603 95.2491 20.2503 95.2389 20.6763C95.2247 21.2847 95.2288 21.9013 95.2389 22.5138C95.2491 22.9945 95.5441 23.169 95.9885 22.9631C96.0902 22.9144 96.192 22.8536 96.2937 22.7958C97.1165 22.3212 97.9525 21.8678 98.757 21.3648C99.5941 20.8405 100.561 20.5089 101.226 19.727V16.8186C101.03 16.6482 100.849 16.4443 100.624 16.3135Z" fill="#141414"/>
<path d="M122.656 17.3915C122.656 16.6593 122.365 16.1188 121.713 15.7476C119.291 14.3657 116.873 12.9747 114.461 11.5745C113.842 11.2176 113.24 11.2145 112.62 11.5745C110.179 12.9875 107.732 14.3965 105.279 15.8014C104.713 16.1269 104.415 16.5975 104.417 17.2668C104.425 20.111 104.425 22.9556 104.417 25.8006C104.417 26.4486 104.686 26.9364 105.242 27.2629C105.87 27.6311 106.499 28.0022 107.14 28.349C107.75 28.6837 108.4 28.9261 109.123 28.849C109.918 28.7648 110.592 28.4687 110.899 27.6807C111.04 27.3184 111.115 26.9337 111.121 26.5449C111.14 23.7358 111.131 20.9257 111.136 18.1166C111.136 17.861 111.061 17.7221 110.776 17.7495C110.591 17.7688 110.404 17.7688 110.219 17.7495C109.872 17.7079 109.759 17.8347 109.762 18.1906C109.776 20.3761 109.769 22.5615 109.769 24.7469C109.769 25.3138 109.778 25.8807 109.769 26.4466C109.754 27.1027 109.327 27.5134 108.674 27.4607C108.377 27.4272 108.09 27.3363 107.827 27.193C107.223 26.8755 106.645 26.5084 106.046 26.1788C105.818 26.0551 105.751 25.8949 105.752 25.6495C105.759 22.9093 105.759 20.1692 105.752 17.429C105.741 17.3212 105.764 17.2126 105.817 17.1178C105.869 17.023 105.95 16.9465 106.047 16.8986C108.459 15.5201 110.866 14.1342 113.269 12.7408C113.348 12.6856 113.442 12.656 113.539 12.656C113.636 12.656 113.73 12.6856 113.81 12.7408C116.213 14.1308 118.62 15.5167 121.031 16.8986C121.124 16.9429 121.202 17.0142 121.254 17.1032C121.306 17.1922 121.33 17.2948 121.323 17.3976C121.318 20.1614 121.318 22.9249 121.323 25.688C121.33 25.7907 121.306 25.8932 121.254 25.982C121.202 26.0708 121.124 26.1415 121.03 26.1849C118.62 27.5655 116.212 28.9514 113.809 30.3428C113.73 30.3997 113.635 30.4304 113.537 30.4304C113.44 30.4304 113.345 30.3997 113.266 30.3428C112.735 30.0142 112.195 29.6978 111.651 29.3905C111.541 29.3277 111.372 29.2628 111.272 29.3023C110.839 29.4767 110.422 29.6907 109.934 29.9199L113.052 31.7717H114.165C114.154 31.7662 114.145 31.7601 114.135 31.7534C114.129 31.7468 114.124 31.7397 114.119 31.7321C114.18 31.6814 114.243 31.6346 114.31 31.5922C116.778 30.1724 119.246 28.7527 121.715 27.3329C122.364 26.9617 122.659 26.4253 122.657 25.685C122.648 22.9198 122.647 20.1553 122.656 17.3915Z" fill="#141414"/>
<path d="M117.102 24.4C116.351 24.5785 115.571 24.6016 114.811 24.4679C114.234 24.3777 113.585 24.2134 113.445 23.5806C113.29 22.8707 112.889 22.8159 112.327 22.8839C112.28 22.89 112.233 22.89 112.187 22.8839C111.939 22.8524 111.872 22.9701 111.867 23.2043C111.843 24.1434 112.508 25.0703 113.529 25.4465C114.861 25.9506 116.324 25.998 117.687 25.5814C118.643 25.2954 119.377 24.762 119.545 23.6688C119.737 22.4174 119.231 21.5959 118.086 21.3049C117.212 21.0818 116.31 20.9672 115.423 20.7978C114.981 20.727 114.544 20.6325 114.113 20.5149C113.558 20.3445 113.407 19.7168 113.825 19.304C114.002 19.1237 114.231 19.0014 114.48 18.9532C114.996 18.8922 115.515 18.8628 116.035 18.8649C117.008 18.8457 117.69 19.2178 117.901 20.1163C117.921 20.1778 117.956 20.2336 118.002 20.2791C118.048 20.3246 118.104 20.3585 118.166 20.378C118.441 20.4181 118.72 20.4181 118.996 20.378C119.111 20.3597 119.294 20.1894 119.29 20.092C119.259 19.0231 118.646 18.155 117.607 17.8366C116.957 17.6338 116.264 17.5821 115.589 17.4624C115.589 17.4938 115.58 17.5243 115.575 17.5557C114.789 17.508 114.032 17.6186 113.326 17.9806C112.221 18.5475 111.854 19.7644 112.309 20.8354C112.572 21.454 113.116 21.7683 113.725 21.9042C114.561 22.0918 115.418 22.1831 116.268 22.3342C116.733 22.404 117.192 22.5077 117.642 22.6445C118.084 22.7936 118.215 23.1374 118.095 23.5948C117.961 24.1049 117.554 24.2844 117.102 24.4Z" fill="#141414"/>
<path d="M57.4372 23.8311C57.4372 23.2057 57.4372 22.5807 57.4372 21.956C56.6734 21.6 55.9116 21.2461 55.1488 20.8851C55.9095 21.2471 56.6744 21.595 57.4372 21.956C57.4372 20.379 57.4545 18.8011 57.4372 17.2241C57.4372 17.0162 57.2816 16.8094 57.1982 16.6025C57.0686 16.4771 56.9288 16.3628 56.7801 16.2607C55.5468 15.5427 54.309 14.8312 53.0668 14.126C52.66 13.8968 52.245 13.697 51.8341 13.4831C51.7784 13.4327 51.7192 13.3863 51.6571 13.3441C51.0218 12.975 50.3858 12.6069 49.7491 12.2397L48.8429 11.752L48.6984 11.6992L48.2123 11.756L46.5382 12.692L45.1549 13.4932L43.6954 14.3288C43.4127 14.485 43.1279 14.6331 42.8492 14.7994C41.943 15.3277 41.0398 15.8622 40.1356 16.3936C39.9911 16.4564 39.8684 16.5606 39.7832 16.6929C39.6979 16.8252 39.6539 16.9797 39.6566 17.1369C39.6444 17.7941 39.6566 18.4553 39.6627 19.1084V23.826C39.6627 24.6911 39.6464 25.5571 39.6566 26.4222C39.6566 26.5733 39.7512 26.7264 39.802 26.8735C39.9251 26.9901 40.0299 27.1371 40.1733 27.2193C42.7743 28.7262 45.3797 30.2254 47.9895 31.7169C48.1756 31.8183 48.4259 31.8183 48.6455 31.8629L49.9505 31.226L51.4822 30.3387L52.3976 29.8073L52.8044 29.5781L53.4309 29.2221L54.4042 28.6634C54.4042 28.5538 54.392 28.4443 54.3849 28.3348C54.392 28.4443 54.3992 28.5538 54.4042 28.6634L55.1782 28.206C55.7976 27.8531 56.4242 27.5093 57.0365 27.1432C57.1699 27.0703 57.2793 26.9605 57.3514 26.8269C57.4236 26.6934 57.4555 26.5419 57.4433 26.3907L57.4372 23.8311ZM42.2329 22.7886L41.1883 24.5886L42.2359 22.7886C42.3715 22.579 42.5071 22.3691 42.6427 22.1588C42.5044 22.3691 42.3678 22.579 42.2329 22.7886ZM45.0797 25.2864L43.6222 22.6497C43.5042 22.4516 43.3866 22.2538 43.2693 22.0564C43.3866 22.2545 43.5042 22.4522 43.6222 22.6497L45.0797 25.2864ZM55.88 18.9045C55.7783 18.8193 55.6512 18.7463 55.5525 18.6561C55.6512 18.7463 55.7743 18.8193 55.88 18.9045ZM54.7612 20.9186C54.8263 20.8445 54.8904 20.7695 54.9545 20.6955C54.8884 20.7695 54.8243 20.8445 54.7592 20.9206L54.7612 20.9186Z" fill="#141414"/>
<path d="M93.8302 22.2389V21.884C93.8302 21.5848 93.8302 21.2857 93.8302 20.9875C93.8221 20.9457 93.807 20.9056 93.7855 20.8689C93.7607 20.8456 93.7342 20.8242 93.7062 20.805C93.4722 20.6698 93.2376 20.5346 93.0023 20.3993C92.9261 20.3557 92.8467 20.3182 92.7684 20.2776C92.7579 20.268 92.7467 20.2592 92.7348 20.2513L92.3738 20.0424L92.2019 19.9501L92.1744 19.9399L92.0819 19.9511L91.7656 20.1276L91.5032 20.2797L91.2286 20.4358C91.1746 20.4653 91.1207 20.4936 91.0679 20.5251L90.5593 20.8293C90.5319 20.8411 90.5087 20.8606 90.4924 20.8855C90.4761 20.9104 90.4675 20.9396 90.4678 20.9693C90.4678 21.094 90.4678 21.2187 90.4678 21.3435V22.2389C90.4678 22.4032 90.4678 22.5675 90.4678 22.7308C90.4724 22.7608 90.4817 22.7898 90.4952 22.817C90.5158 22.8414 90.5394 22.8632 90.5654 22.8819C91.0577 23.1679 91.5513 23.4522 92.0463 23.7348C92.0862 23.7494 92.128 23.7587 92.1704 23.7622L92.4175 23.6415L92.7074 23.4731L92.8803 23.3717L92.9576 23.3281L93.0766 23.2602C93.1386 23.2257 93.1997 23.1902 93.2607 23.1588L93.4082 23.0725C93.5251 23.0056 93.6441 22.9407 93.7601 22.8697C93.7852 22.8557 93.8057 22.8347 93.8192 22.8094C93.8327 22.784 93.8387 22.7553 93.8363 22.7267L93.8302 22.2389ZM90.9489 22.0361C90.9753 21.9966 91.0007 21.957 91.0262 21.9175C91.0007 21.959 90.9753 21.9986 90.9489 22.0361ZM91.7503 22.9863C91.8256 23.1216 91.9002 23.2568 91.9741 23.392C91.9002 23.2588 91.8256 23.1243 91.7503 22.9884V22.9863ZM93.5353 21.3009C93.5149 21.2847 93.4916 21.2705 93.4732 21.2532C93.4916 21.2725 93.5149 21.2867 93.5353 21.3029V21.3009Z" fill="#141414"/>
<path d="M125.26 15.3074C124.976 15.3084 124.699 15.3931 124.464 15.5509C124.228 15.7087 124.044 15.9324 123.936 16.194C123.828 16.4556 123.799 16.7433 123.855 17.0209C123.91 17.2984 124.047 17.5535 124.247 17.7539C124.447 17.9543 124.703 18.0911 124.981 18.147C125.259 18.203 125.548 18.1756 125.81 18.0683C126.073 17.961 126.298 17.7786 126.457 17.5441C126.616 17.3096 126.702 17.0335 126.703 16.7505C126.708 16.5602 126.673 16.3709 126.602 16.1942C126.531 16.0174 126.425 15.8568 126.291 15.722C126.156 15.5872 125.995 15.481 125.818 15.4097C125.641 15.3385 125.451 15.3037 125.26 15.3074ZM125.266 17.9573C125.104 17.9573 124.943 17.9249 124.793 17.862C124.643 17.7991 124.507 17.7069 124.393 17.5909C124.279 17.4748 124.19 17.3373 124.13 17.1864C124.071 17.0354 124.042 16.8741 124.046 16.712C124.073 16.4062 124.216 16.1221 124.444 15.9166C124.673 15.7111 124.971 15.5993 125.279 15.6036C125.587 15.608 125.881 15.7282 126.104 15.9401C126.327 16.152 126.461 16.44 126.48 16.7464C126.478 17.0669 126.35 17.3738 126.123 17.6005C125.895 17.8272 125.588 17.9554 125.266 17.9573Z" fill="#141414"/>
<path d="M125.74 16.7627C125.756 16.5599 125.862 16.2932 125.774 16.1542C125.527 15.7679 125.114 16.0011 124.737 15.9443C124.737 16.4514 124.737 16.9087 124.743 17.3641C124.743 17.4229 124.837 17.4797 124.888 17.5375C124.933 17.4746 125.006 17.4158 125.017 17.3468C125.029 17.2147 125.031 17.0818 125.023 16.9493C125.465 16.8743 125.495 16.8875 125.503 17.2637C125.503 17.5253 125.617 17.5842 125.869 17.4969C125.809 17.2363 125.751 16.9899 125.693 16.7404L125.74 16.7627ZM125.051 16.6197V16.2384H125.457C125.536 16.6258 125.504 16.6613 125.051 16.6187V16.6197Z" fill="#141414"/>
<path d="M45.3435 56.5728V68.223L43.707 68.3244V37.978L45.3089 37.8654V42.2748L45.6405 42.4776C45.7697 42.2474 45.909 42.0233 46.026 41.787C48.9897 35.8159 58.8605 35.8037 62.1975 42.1673C64.5765 46.7024 64.5368 51.4282 62.3186 56.0292C61.0818 58.595 58.8758 60.1537 56.032 60.5096C54.3971 60.7196 52.741 60.7043 51.1104 60.464C48.6978 60.0918 46.8061 58.7643 45.7198 56.4136L45.3435 56.5728ZM45.1543 49.0055L45.3852 49.0846C45.5042 50.2437 45.5459 51.417 45.7544 52.561C46.4531 56.4024 48.9236 58.7542 52.6156 59.1791C56.4338 59.6182 59.7911 57.7411 61.1937 54.1714C62.6969 50.3421 62.5861 46.5006 60.5641 42.863C58.9734 39.9991 56.4002 38.8572 53.1486 39.0093C50.0973 39.1503 47.8394 40.5751 46.6647 43.3041C45.8968 45.089 45.6425 47.0969 45.1543 49.0055Z" fill="#141414"/>
<path d="M2.03028 49.3687C2.01604 54.7435 4.68994 58.441 8.97693 59.1042C13.3646 59.7796 16.0395 58.0536 18.4765 52.7325H19.816C19.8912 52.9079 20.0061 53.0367 19.9807 53.1381C18.3697 59.2482 13.1988 62.18 7.15331 60.385C4.65841 59.6437 2.70053 58.1235 1.61734 55.7698C-0.490045 51.1819 -0.454448 46.5149 2.03028 42.1238C4.4967 37.7631 8.35245 36.9518 12.4411 37.5359C16.1819 38.0724 19.2037 41.274 19.9858 45.3244C20.2279 46.5788 20.2523 47.8739 20.3926 49.3687H2.03028ZM2.27539 47.7461H18.2802C18.4561 42.8966 15.1974 39.2782 10.8738 38.9922C6.31727 38.688 2.0852 42.6025 2.27539 47.742V47.7461Z" fill="#141414"/>
<path d="M80.11 49.4052C80.0917 54.8013 82.5846 58.367 86.8675 59.0241C90.9134 59.6458 94.64 58.4654 96.4077 52.7853L97.8784 52.696C97.9496 52.9242 98.0381 53.052 98.0127 53.1524C96.7057 58.4816 93.2141 61.029 87.6262 60.738C82.5622 60.4743 79.0431 57.0628 78.4156 51.6403C78.0484 48.4682 78.2783 45.3457 79.87 42.4464C81.8818 38.7793 85.4456 36.9792 89.9055 37.4366C93.5497 37.8098 96.7749 40.552 97.7716 44.3427C98.1784 45.8974 98.2364 47.5453 98.4836 49.4052H80.11ZM80.1751 47.739H96.4158C96.4057 42.9727 93.39 39.3421 89.3715 39.0176C83.9963 38.5734 80.406 42.6005 80.1751 47.739Z" fill="#141414"/>
<path d="M139.743 44.578L138.183 44.4766C137.447 40.5216 135.64 38.9832 131.673 39.0501C130.321 39.0724 128.907 39.2407 127.641 39.6829C126.073 40.2305 124.996 41.4069 124.973 43.2323C124.947 45.0871 126.074 46.2006 127.639 46.7635C129.311 47.3648 131.088 47.6711 132.812 48.1305C134.27 48.5189 135.762 48.8272 137.162 49.3769C139.184 50.1719 140.279 51.7347 140.454 53.9404C140.639 56.287 139.874 58.1997 137.768 59.298C133.933 61.2917 129.952 61.4043 126.105 59.4085C123.676 58.148 122.545 55.9098 122.468 53.0196H124.034C125.472 58.5861 131.397 61.0199 136.433 58.1672C137.915 57.3285 138.799 56.1136 138.749 54.3288C138.701 52.5926 137.732 51.4609 136.227 50.9092C134.498 50.2754 132.667 49.9153 130.896 49.388C129.195 48.8809 127.446 48.456 125.837 47.733C122.315 46.1499 122.202 40.3096 126.027 38.538C129.454 36.9509 132.995 36.8373 136.401 38.4366C138.759 39.5531 139.822 41.6807 139.743 44.578Z" fill="#141414"/>
<path d="M101.375 53.0143L102.991 52.922C103.35 55.6013 104.632 57.519 107.068 58.4996C109.835 59.6152 112.607 59.4306 115.271 58.1741C116.818 57.445 117.665 56.155 117.634 54.3803C117.604 52.6563 116.691 51.4698 115.167 50.9211C113.369 50.2741 111.473 49.907 109.633 49.3706C108.058 48.9112 106.447 48.5106 104.954 47.8565C102.92 46.9641 102.078 45.237 102.106 43.0344C102.134 40.8712 103.172 39.3166 105.066 38.4708C108.351 36.9973 111.779 36.8624 115.08 38.3288C117.56 39.4312 118.7 41.5679 118.648 44.4582L117.106 44.5494C116.33 40.5356 114.586 39.0053 110.605 39.06C109.107 39.0934 107.624 39.3674 106.213 39.8713C104.682 40.4129 103.812 41.6866 103.857 43.3913C103.9 45.0281 104.849 46.1294 106.307 46.6365C108.117 47.2581 110.013 47.6263 111.858 48.1577C113.437 48.611 115.041 49.0217 116.551 49.6515C119.93 51.0611 120.517 56.7665 117.059 59.1112C113.896 61.254 107.59 61.3219 104.47 59.1304C102.518 57.7533 101.674 56.1246 101.375 53.0143Z" fill="#141414"/>
<path d="M32.1937 48.5107L40.9965 60.1669L38.7823 60.3302L31.0393 49.8767L23.2261 60.1903H21.0557L29.8097 48.534L21.6303 37.8787H24.0042L31.0353 47.1396L38.0704 37.9202H40.2846L32.1937 48.5107Z" fill="#141414"/>
<path d="M70.0977 41.5438C72.2763 38.8726 74.5139 37.8341 78.0909 37.8929C78.1425 38.3141 78.1964 38.7536 78.2526 39.2113C77.9902 39.3249 77.8051 39.48 77.6302 39.4699C73.6168 39.2326 69.458 42.6471 69.4305 47.7167C69.4122 51.2871 69.4 54.8571 69.3939 58.4268C69.3939 58.9663 69.3939 59.5048 69.3939 60.164H67.6943V37.9659L69.3807 37.8767V42.5021L69.6563 42.5538L70.0977 41.5438Z" fill="#141414"/>
</g>
<defs>
<clipPath id="clip0_257_175">
<rect width="140.379" height="68.2927" fill="white" transform="translate(0.0976562 0.0297852)"/>
</clipPath>
</defs>
</svg>
