<svg width="128" height="54" viewBox="0 0 128 54" fill="none" xmlns="http://www.w3.org/2000/svg">
<path d="M21.0285 27.053C20.4878 26.9919 20.1093 26.9217 19.7307 26.9125C17.1182 26.8331 17.1216 26.8392 17.7029 24.5183C18.0409 23.1898 18.3789 21.8614 18.7168 20.5269C18.9331 19.626 19.3928 19.1587 20.5385 19.174C25.2701 19.232 30.0017 19.2259 34.7062 19.174C35.906 19.174 36.2102 19.6016 35.977 20.5483C35.5376 22.3256 35.1658 24.1213 34.5778 25.8559C34.4291 26.3017 33.5639 26.8728 33.0603 26.8392C31.6273 26.7476 31.1541 27.3584 30.7553 28.4761C29.5015 32.1407 27.7508 35.5733 24.6279 38.2881C20.4878 41.8886 12.096 43.1163 7.14473 40.7618C2.72746 38.6577 0.675977 34.993 0.223096 30.7451C-0.696182 22.4264 1.18969 14.578 6.54652 7.66706C10.7509 2.2373 16.591 -0.300464 24.0162 0.893596C29.0891 1.70592 32.3134 5.19649 32.9656 10.3239C33.0975 11.3775 33.1887 12.4372 33.3036 13.4969C33.405 14.4314 32.9082 14.7459 31.9078 14.7184C29.3212 14.6818 26.7301 14.6818 24.1345 14.7184C23.1916 14.7184 22.5967 14.5291 22.6812 13.5427C22.6775 13.2893 22.6354 13.0376 22.5562 12.7945C22.2554 11.4416 22.0019 9.97578 20.2343 9.58183C18.2775 9.14513 16.5707 9.88722 15.5669 11.3439C14.1167 13.3712 12.8831 15.5186 11.8831 17.757C10.3509 21.3777 9.83311 25.2844 10.3757 29.1296C10.8523 32.7301 14.0427 34.1929 17.3954 32.2201C19.4029 31.0413 20.4675 29.2426 21.0285 27.053Z" fill="#141414"/>
<path d="M55.9404 41.3175C56.2784 40.5205 56.4305 40.0105 56.6704 39.531C62.7854 27.2585 68.8982 14.9851 75.0087 2.71058C75.5224 1.66922 76.1105 1.15311 77.4928 1.18365C81.1429 1.28748 84.7997 1.26 88.4532 1.18365C89.778 1.16228 90.339 1.43712 90.3357 2.77777C90.2771 15.0665 90.2692 27.3563 90.312 39.6471C90.312 40.8686 89.9504 41.3725 88.5072 41.3206C85.9826 41.229 83.4377 41.2473 80.9232 41.3206C79.7166 41.3542 79.2807 40.948 79.4125 39.9036C79.5105 39.1493 79.5307 38.3766 79.6457 37.6346C79.7808 36.7489 79.5037 36.3153 78.4087 36.3336C75.6576 36.3764 72.8998 36.3092 70.1487 36.3855C69.8706 36.4272 69.6058 36.5227 69.3725 36.6656C69.1391 36.8084 68.9427 36.9952 68.7968 37.2131C68.2537 38.0421 67.8376 38.9338 67.5598 39.8639C67.2219 41.1068 66.4006 41.3603 65.1028 41.3267C62.1625 41.2625 59.2052 41.3175 55.9404 41.3175ZM80.7745 11.7836L80.2337 11.6645L73.0012 27.9691C75.2825 27.9691 77.1751 28.0393 79.0508 27.908C79.4226 27.8836 79.9633 27.1171 80.0276 26.6468C80.2134 25.242 80.2033 23.8158 80.2743 22.3988C80.441 18.8665 80.6077 15.3281 80.7745 11.7836Z" fill="#141414"/>
<path d="M98.3723 33.6828C99.4505 34.2233 100.505 34.8158 101.617 35.2922C102.729 35.7686 103.175 36.2297 102.844 37.4879C101.847 41.2961 101.935 41.3175 97.5849 41.3175H93.5292C91.4811 41.3175 91.4676 41.3175 91.9002 39.5859C93.8312 31.9553 95.7643 24.3207 97.6998 16.682C98.8996 11.9576 100.086 7.21499 101.36 2.51815C101.495 2.02342 102.202 1.27217 102.627 1.2966C106.818 1.39127 111.077 1.24163 115.183 1.90737C121.361 2.89072 124.562 6.86685 124.751 12.5959C124.933 18.0745 123.514 23.0462 119.394 27.1995C115.923 30.6839 111.482 32.5804 106.315 32.9957C104.084 33.1759 101.823 33.0537 99.5755 33.0904C99.2134 33.128 98.8566 33.1996 98.5109 33.3041C98.467 33.4293 98.4197 33.5576 98.3723 33.6828ZM106.146 24.2708C108.065 24.5976 109.508 24.1151 110.661 23.0493C114 19.9954 114.916 16.2605 114.129 12.147C113.791 10.388 112.706 9.65808 110.712 9.60311C108.971 9.5573 107.231 9.57868 105.49 9.60311C105.09 9.64552 104.697 9.7285 104.317 9.85047C105.318 10.7026 106.474 11.3926 107.734 11.8905C108.805 12.3272 109.025 12.9043 108.748 13.9213C107.832 17.3172 107.024 20.7222 106.139 24.2708H106.146Z" fill="#141414"/>
<path d="M63.3123 12.9441C60.1286 12.9441 57.1612 12.9868 54.1871 12.8891C53.8085 12.8891 53.2069 12.1623 53.1393 11.7195C52.8014 9.41687 51.6624 8.36023 49.7123 8.69005C47.7622 9.01987 46.5726 10.7942 47.4716 12.6845C48.2895 14.4038 49.6042 15.9644 50.8986 17.4516C52.2505 18.9999 53.9978 20.2703 55.2922 21.8522C59.6858 27.2759 59.0302 35.0266 53.67 39.0912C51.9461 40.3712 49.8936 41.2386 47.7014 41.6137C42.9225 42.3772 38.1233 42.2795 34.4733 38.6576C32.0297 36.2145 31.6647 33.2187 31.8912 30.1068C31.9114 29.8411 32.6584 29.4227 33.0774 29.4136C35.6562 29.3464 38.2416 29.3922 40.8271 29.3739C41.7227 29.3739 42.2162 29.6334 42.0979 30.5282C42.0596 30.8827 42.0755 31.2404 42.1452 31.591C42.4257 33.0935 43.3788 33.8875 44.8016 33.8356C46.2245 33.7836 47.2249 32.8156 47.3871 31.3253C47.4769 30.5168 47.3747 29.7003 47.0873 28.9304C46.8 28.1605 46.3342 27.4548 45.7209 26.8605C43.8046 24.8755 41.7261 23.0096 39.9146 20.9544C35.4196 15.8544 35.3993 9.49627 39.8402 4.62841C41.8041 2.50075 44.5906 1.12827 47.6338 0.78971C51.9835 0.224745 56.3264 0.200315 59.8616 3.11065C62.9979 5.67589 63.515 9.09621 63.3123 12.9441Z" fill="#141414"/>
<path d="M118.908 49.5587V43.751H121.851C122.087 43.751 122.344 43.8192 122.622 43.9556C122.9 44.0868 123.136 44.2914 123.331 44.5695C123.53 44.8423 123.63 45.1885 123.63 45.6082C123.63 46.0332 123.527 46.3952 123.323 46.6942C123.118 46.988 122.869 47.211 122.575 47.3631C122.287 47.5153 122.014 47.5913 121.757 47.5913H119.632V46.647H121.363C121.536 46.647 121.723 46.5604 121.922 46.3873C122.127 46.2142 122.229 45.9545 122.229 45.6082C122.229 45.2515 122.127 45.0101 121.922 44.8842C121.723 44.7583 121.547 44.6954 121.395 44.6954H120.183V49.5587H118.908ZM122.418 46.8201L123.866 49.5587H122.465L121.048 46.8201H122.418ZM121.111 53.0212C120.24 53.0212 119.425 52.8586 118.664 52.5333C117.903 52.2081 117.234 51.7569 116.657 51.1798C116.08 50.6027 115.629 49.9338 115.304 49.1731C114.978 48.4124 114.816 47.5966 114.816 46.7257C114.816 45.8548 114.978 45.039 115.304 44.2783C115.629 43.5176 116.08 42.8487 116.657 42.2716C117.234 41.6945 117.903 41.2433 118.664 40.918C119.425 40.5928 120.24 40.4301 121.111 40.4301C121.982 40.4301 122.798 40.5928 123.559 40.918C124.319 41.2433 124.988 41.6945 125.565 42.2716C126.143 42.8487 126.594 43.5176 126.919 44.2783C127.244 45.039 127.407 45.8548 127.407 46.7257C127.407 47.5966 127.244 48.4124 126.919 49.1731C126.594 49.9338 126.143 50.6027 125.565 51.1798C124.988 51.7569 124.319 52.2081 123.559 52.5333C122.798 52.8586 121.982 53.0212 121.111 53.0212ZM121.111 51.5103C121.993 51.5103 122.795 51.2952 123.519 50.865C124.243 50.4348 124.82 49.8577 125.251 49.1337C125.681 48.4097 125.896 47.6071 125.896 46.7257C125.896 45.8443 125.681 45.0416 125.251 44.3176C124.82 43.5936 124.243 43.0166 123.519 42.5864C122.795 42.1562 121.993 41.9411 121.111 41.9411C120.23 41.9411 119.427 42.1562 118.703 42.5864C117.979 43.0166 117.402 43.5936 116.972 44.3176C116.542 45.0416 116.327 45.8443 116.327 46.7257C116.327 47.6071 116.542 48.4097 116.972 49.1337C117.402 49.8577 117.979 50.4348 118.703 50.865C119.427 51.2952 120.23 51.5103 121.111 51.5103Z" fill="#141414"/>
</svg>
