<svg width="95" height="70" viewBox="0 0 95 70" fill="none" xmlns="http://www.w3.org/2000/svg">
<g clip-path="url(#clip0_257_83)">
<path d="M80.9904 40.1969C77.7166 40.2156 74.8818 40.9997 72.504 42.1671C71.626 40.4345 70.7479 38.92 70.6019 37.7896C70.4374 36.4761 70.2363 35.6732 70.4374 34.1046C70.6386 32.5359 71.5537 30.3094 71.5537 30.1267C71.5353 29.9627 71.3521 29.1599 69.4684 29.142C67.5846 29.124 65.9567 29.5066 65.7739 29.9989C65.4474 30.91 65.1845 31.8426 64.9873 32.79C64.658 34.5047 61.2194 40.5791 59.2622 43.7732C58.6221 42.5325 58.0737 41.4383 57.9636 40.5604C57.7991 39.2473 57.598 38.4444 57.7991 36.8762C58.0003 35.3079 58.915 33.0817 58.915 32.8994C58.8967 32.7354 58.7139 31.9326 56.8301 31.9143C54.9464 31.896 53.3184 32.2793 53.1353 32.7735C52.9521 33.2678 52.7513 34.4337 52.3486 35.5645C51.9632 36.6935 47.3933 46.8358 46.2029 49.4807C45.5995 50.8304 45.0691 51.9067 44.6848 52.6363C44.3005 53.3659 44.6668 52.6912 44.6301 52.7641C44.3008 53.3842 44.118 53.7309 44.118 53.7309V53.7492C43.8618 54.2053 43.5876 54.6428 43.4592 54.6428C43.3678 54.6428 43.185 53.4208 43.4966 51.7427C44.1735 48.2221 45.819 42.7316 45.8014 42.531C45.8014 42.4399 46.1119 41.4727 44.7402 40.9803C43.4052 40.4879 42.9299 41.3087 42.8197 41.3087C42.7096 41.3087 42.6186 41.6008 42.6186 41.6008C42.6186 41.6008 44.1001 35.417 39.7838 35.417C37.0767 35.417 33.3455 38.354 31.4985 41.0352C30.3279 41.6736 27.8404 43.0234 25.2056 44.4647C24.1995 45.0119 23.157 45.5955 22.1692 46.1245L21.9685 45.9055C16.7379 40.3418 7.06249 36.4017 7.46329 28.923C7.60975 26.2049 8.5608 19.0363 26.0461 10.3536C40.367 3.23953 51.8351 5.1911 53.8282 9.53171C56.6634 15.7331 47.7013 27.2621 32.8144 28.9223C27.1448 29.5607 24.1616 27.3716 23.4125 26.5508C22.6258 25.6916 22.5161 25.6568 22.2236 25.8212C21.7478 26.0764 22.0408 26.8426 22.2236 27.2987C22.6626 28.4479 24.4916 30.491 27.6006 31.5123C30.3257 32.4063 36.9834 32.8987 45.0313 29.7976C54.0481 26.3136 61.0898 16.6476 59.0229 8.56489C56.9211 0.339069 43.24 -2.36078 30.3092 2.21779C22.609 4.95388 14.2686 9.22239 8.26976 14.8223C1.13666 21.4623 0.00243697 27.2629 0.478152 29.6709C2.14428 38.2625 14.0128 43.8624 18.7681 48.0047C18.5302 48.1321 18.3107 48.2598 18.1096 48.3693C15.7317 49.5367 6.67855 54.2614 4.41048 59.2591C1.84986 64.914 4.81277 68.9819 6.78792 69.5291C12.8969 71.2256 19.152 68.1794 22.536 63.163C25.9008 58.1466 25.4989 51.6347 23.944 48.6614L23.8889 48.552L25.7547 47.4574C26.962 46.7476 28.152 46.0893 29.193 45.5237C28.6079 47.1107 28.1872 48.9894 27.9677 51.7251C27.7119 54.9357 29.0285 59.0947 30.7662 60.7362C31.5344 61.446 32.4488 61.4658 33.0159 61.4658C35.0278 61.4658 35.9425 59.806 36.949 57.8178C38.1926 55.3918 39.2901 52.5825 39.2901 52.5825C39.2901 52.5825 37.9184 60.1889 41.6679 60.1889C43.0396 60.1889 44.4113 58.4197 45.0331 57.5078V57.5261C45.0331 57.5261 45.0706 57.4712 45.1429 57.3434C45.2195 57.2303 45.2927 57.1149 45.3624 56.9971V56.9597C45.9111 56.0112 47.1364 53.8407 48.9655 50.2473C51.3253 45.6149 53.593 39.8132 53.593 39.8132C53.593 39.8132 53.8125 41.2362 54.489 43.5711C54.8913 44.9574 55.7693 46.4711 56.4458 47.9486C55.8974 48.7149 55.5681 49.1527 55.5681 49.1527L55.5861 49.171C55.1475 49.7549 54.6534 50.375 54.1418 50.9952C52.276 53.2206 50.0446 55.7564 49.7521 56.4868C49.4045 57.3438 49.4775 57.9811 50.1544 58.4933C50.6481 58.8583 51.5261 58.9307 52.4588 58.8583C54.1418 58.7484 55.3123 58.3293 55.8974 58.0737C56.9533 57.6987 57.9508 57.1768 58.8603 56.5234C60.6894 55.1737 61.8053 53.2583 61.6955 50.7045C61.6404 49.3003 61.1831 47.9139 60.6163 46.6004C60.7808 46.3632 60.9456 46.126 61.11 45.8708C63.9992 41.6538 66.2305 37.0215 66.2305 37.0215C66.2305 37.0215 66.45 38.4444 67.1269 40.7793C67.4741 41.965 68.1693 43.2602 68.7911 44.5371C66.0841 46.7442 64.3831 49.298 63.798 50.9761C62.7188 54.0768 63.5602 55.4819 65.1514 55.8102C65.8631 55.9559 66.889 55.6275 67.6569 55.2995C68.7906 54.9274 69.8585 54.3795 70.8214 53.676C72.6504 52.3262 74.4061 50.4471 74.3147 47.9117C74.2596 46.7442 73.9487 45.5955 73.5281 44.5005C75.8328 43.552 78.8137 43.0062 82.6 43.4608C90.7392 44.4094 92.3484 49.4803 92.0394 51.5963C91.7303 53.7122 90.0275 54.88 89.4604 55.2446C88.8933 55.5913 88.7112 55.7191 88.7652 55.9742C88.8401 56.3575 89.0944 56.3392 89.5892 56.2664C90.2661 56.1565 93.8692 54.5333 94.0156 50.6302C94.2325 45.6138 89.4585 40.1412 80.9904 40.1969ZM18.2193 61.3007C15.5306 64.2378 11.7447 65.3503 10.1352 64.4014C8.39749 63.3984 9.07435 59.0749 12.3849 55.9559C14.3967 54.0589 17.012 52.3076 18.7314 51.2313C19.1157 50.9944 19.7008 50.6477 20.396 50.2282C20.4549 50.1884 20.5159 50.1519 20.5788 50.1188C20.7069 50.0459 20.853 49.9544 20.9994 49.8632C22.2247 54.314 21.0541 58.2179 18.2193 61.3007ZM37.8809 47.9673C36.9482 50.2462 34.9731 56.1027 33.7842 55.7751C32.7597 55.5013 32.1379 51.068 33.5826 46.6908C34.3142 44.4833 35.8676 41.8571 36.7834 40.8353C38.2652 39.1916 39.8744 38.6462 40.2771 39.3212C40.7524 40.1969 38.4664 46.544 37.8809 47.9673ZM54.1043 55.7004C53.702 55.9014 53.336 56.0471 53.1716 55.938C53.0435 55.8633 53.336 55.5913 53.336 55.5913C53.336 55.5913 55.3659 53.4204 56.1708 52.4159C56.6282 51.8324 57.1766 51.1573 57.7621 50.3911V50.61C57.7621 53.2363 55.2381 54.9876 54.1043 55.6989V55.7004ZM66.6152 52.8548C66.3227 52.6359 66.3594 51.9609 67.3468 49.8449C67.7311 49.0059 68.6087 47.6035 70.1269 46.2698C70.3097 46.8171 70.4198 47.3457 70.4011 47.8388C70.3824 51.1222 68.0412 52.3445 66.6145 52.8552L66.6152 52.8548Z" fill="#141414"/>
</g>
<defs>
<clipPath id="clip0_257_83">
<rect width="93.6364" height="70" fill="white" transform="translate(0.383789)"/>
</clipPath>
</defs>
</svg>
