<svg width="132" height="62" viewBox="0 0 132 62" fill="none" xmlns="http://www.w3.org/2000/svg">
<g clip-path="url(#clip0_257_126)">
<path d="M131.908 1.02686H119.969V61.1759H131.908V1.02686Z" fill="#141414"/>
<mask id="mask0_257_126" style="mask-type:luminance" maskUnits="userSpaceOnUse" x="0" y="1" width="129" height="61">
<path d="M128.922 1.02686H0.0751953V61.1759H128.922V1.02686Z" fill="white"/>
</mask>
<g mask="url(#mask0_257_126)">
<path d="M-32.3428 -100.532V61.176H73.3284C74.4008 55.0183 75.4718 48.8613 76.5413 42.7051C77.7907 35.5034 79.0366 28.301 80.2789 21.0979C81.6041 13.4792 82.9285 5.86043 84.2522 -1.7583C85.4359 -8.57557 86.6211 -15.3936 87.8078 -22.2123C89.0543 -29.4154 90.2967 -36.6185 91.5347 -43.8216C92.7756 -50.9878 94.0214 -58.1512 95.2723 -65.3118C96.5946 -72.9305 97.914 -80.5499 99.2306 -88.1701C99.8731 -91.9276 100.541 -95.6831 101.186 -99.4471C101.287 -100.034 101.561 -100.253 102.191 -100.251C111.137 -100.222 120.084 -100.212 129.033 -100.224C129.89 -100.224 130.213 -99.9343 130.123 -99.1109C130.107 -98.7926 130.107 -98.4738 130.123 -98.1555C130.123 -45.6046 130.123 6.94557 130.123 59.4951C130.123 60.0568 130.192 60.6164 130.228 61.1781C130.333 60.868 130.405 60.5478 130.443 60.2228V-100.53L-32.3428 -100.532ZM32.8827 39.9199C32.8677 41.4043 32.6852 42.8824 32.3387 44.3264C31.2677 48.7947 28.4832 51.7139 23.9852 52.7501C18.2642 54.0651 12.9008 53.4417 8.56346 49.033C7.4925 47.9372 6.69357 46.5712 5.6526 45.1733L13.2028 40.6242C13.6976 41.3731 14.1431 42.0774 14.6186 42.7519C15.7474 44.3754 17.2532 45.269 19.303 45.2094C21.9183 45.1349 23.3941 43.8306 23.6639 41.2199C23.7218 40.5499 23.7454 39.8774 23.7346 39.2049C23.7346 29.7195 23.7346 20.2326 23.7346 10.7443V9.35489H32.8463C32.8656 9.75278 32.902 10.1294 32.902 10.5039C32.9063 20.3085 32.9277 30.1152 32.8827 39.9199ZM67.7595 46.4818C65.8896 50.1479 62.6446 52.0437 58.7634 52.8225C52.961 53.9864 47.4113 53.3374 42.4506 49.833C40.6169 48.5292 39.1118 46.8215 38.0533 44.8435C37.9141 44.5881 37.9783 43.9455 38.1625 43.8328C40.4094 42.4795 42.6948 41.1944 44.9481 39.9028C45.8049 40.9071 46.5374 41.9199 47.4284 42.7646C50.1701 45.3626 53.4386 45.8201 56.9471 44.7371C58.4464 44.2775 59.5645 43.2647 59.8344 41.6221C60.1278 39.8433 59.5302 38.3453 57.9795 37.4219C56.4447 36.5324 54.8584 35.7339 53.2287 35.0303C50.2086 33.6835 47.12 32.477 44.5604 30.2982C40.872 27.1492 39.3727 21.7298 40.8978 16.936C42.3136 12.4912 46.4881 9.22935 51.4445 8.91019C53.4274 8.76652 55.4203 8.84288 57.3862 9.13786C61.3766 9.77618 64.1996 12.1614 66.2044 15.5679C66.2678 15.7237 66.3152 15.8856 66.3458 16.0509L59.406 20.4851C59.0076 19.9319 58.6735 19.4425 58.3136 18.9723C56.8721 17.1105 54.9722 16.4041 52.6633 16.7722C51.0847 17.019 49.9388 17.8361 49.5189 19.4106C49.0991 20.9851 49.3797 22.4426 50.6949 23.4533C51.753 24.2618 52.976 24.881 54.1797 25.4746C56.9193 26.8236 59.8044 27.9152 62.4261 29.4556C68.7233 33.1409 70.9059 40.3241 67.7595 46.4818Z" fill="white"/>
<path d="M130.119 -98.1577C130.103 -98.476 130.103 -98.7948 130.119 -99.1131C130.209 -99.9365 129.879 -100.228 129.029 -100.226C120.081 -100.21 111.134 -100.219 102.186 -100.254C101.556 -100.254 101.282 -100.041 101.182 -99.4493C100.539 -95.6917 99.8771 -91.9362 99.226 -88.1722C97.9037 -80.5521 96.5843 -72.9327 95.2677 -65.3139C94.024 -58.1477 92.7781 -50.9843 91.5301 -43.8237C90.2864 -36.6192 89.0455 -29.4154 87.8074 -22.2123C86.6265 -15.3922 85.4413 -8.5742 84.2519 -1.75834C82.9282 5.86181 81.6059 13.4805 80.2851 21.0978C79.0385 28.301 77.7904 35.5034 76.541 42.705C75.4729 48.8627 74.4019 55.0197 73.3281 61.176H130.228C130.192 60.6142 130.123 60.0546 130.123 59.4929C130.119 6.942 130.117 -45.6082 130.119 -98.1577ZM124.269 53.4161C121.311 53.4161 118.351 53.3948 115.393 53.4374C114.637 53.448 114.322 53.0459 114.009 52.5012C110.925 47.2116 107.844 41.9369 104.765 36.6772C104.587 37.1856 104.379 37.683 104.142 38.1666C102.184 41.7781 100.212 45.381 98.2257 48.9755C97.5403 50.216 96.8313 51.4458 96.0624 52.6373C95.8482 52.9735 95.392 53.3693 95.0385 53.3757C92.117 53.4289 89.1933 53.3969 86.2696 53.3863C86.1257 53.3531 85.9867 53.3016 85.8562 53.2331C86.0511 52.8437 86.2117 52.465 86.4195 52.1182C90.7147 44.9434 95.0185 37.7715 99.3309 30.6025C99.8043 29.8173 99.8664 29.2407 99.3524 28.4109C95.8182 22.7107 92.3547 16.9849 88.872 11.2507C88.6407 10.8719 88.4436 10.4698 88.1202 9.85699H89.5767C92.3226 9.85699 95.0685 9.87827 97.8123 9.8421C98.5063 9.8421 98.9282 10.0549 99.2624 10.6549C101.357 14.4848 103.48 18.2765 105.596 22.0851C105.66 22.2021 105.737 22.3107 105.9 22.5681C106.089 22.1 106.198 21.7383 106.371 21.4106C108.308 17.7126 110.256 14.0196 112.217 10.3315C112.301 10.2057 112.413 10.1001 112.544 10.0225C112.675 9.94485 112.821 9.89704 112.973 9.88253C116.001 9.86125 119.032 9.88253 122.061 9.89955C122.119 9.89955 122.177 9.96976 122.339 10.0783C122.144 10.4591 121.967 10.8677 121.74 11.2485C118.283 17.0289 114.818 22.8064 111.347 28.5811C110.919 29.2918 110.955 29.8173 111.381 30.5088C115.808 37.6963 120.212 44.8952 124.593 52.1054C124.807 52.4543 124.978 52.8267 125.235 53.3012C124.916 53.3569 124.593 53.3953 124.269 53.4161Z" fill="#141414"/>
<path d="M66.3476 16.0509L59.4057 20.4851C59.0073 19.9319 58.6731 19.4425 58.3133 18.9723C56.8718 17.1105 54.9719 16.4041 52.6629 16.7722C51.0843 17.019 49.9384 17.836 49.5186 19.4106C49.0988 20.9851 49.3794 22.4426 50.6945 23.4533C51.7526 24.2618 52.9757 24.881 54.1794 25.4746C56.9189 26.8236 59.8041 27.9152 62.4258 29.4556C68.723 33.1536 70.9056 40.3369 67.7677 46.4946C65.8978 50.1607 62.6528 52.0565 58.7717 52.8352C52.9692 53.9991 47.4195 53.3502 42.4589 49.8458C40.6251 48.542 39.12 46.8342 38.0615 44.8562C37.9223 44.6009 37.9866 43.9583 38.1708 43.8455C40.4176 42.4923 42.703 41.2071 44.9563 39.9156C45.8131 40.9199 46.5456 41.9327 47.4367 42.7774C50.1783 45.3754 53.4469 45.8328 56.9553 44.7498C58.4547 44.2902 59.5727 43.2774 59.8426 41.6348C60.1361 39.856 59.5385 38.3581 57.9877 37.4347C56.4529 36.5452 54.8666 35.7466 53.237 35.0431C50.2169 33.6962 47.1282 32.4898 44.5687 30.311C40.8803 27.1619 39.3809 21.7426 40.906 16.9488C42.3218 12.5039 46.4964 9.24211 51.4528 8.92295C53.4357 8.77928 55.4285 8.85564 57.3944 9.15061C61.3848 9.78894 64.2078 12.1741 66.2127 15.5806C66.2731 15.7326 66.3183 15.8901 66.3476 16.0509Z" fill="#141414"/>
<path d="M5.64355 45.1732L13.2024 40.6241C13.6971 41.3731 14.1427 42.0774 14.6182 42.7519C15.747 44.3753 17.2527 45.269 19.3025 45.2094C21.9178 45.1349 23.3936 43.8306 23.6635 41.2199C23.7213 40.5498 23.7449 39.8773 23.7341 39.2049C23.7341 29.7195 23.7341 20.2326 23.7341 10.7443V9.35486H32.8458C32.8651 9.75275 32.9015 10.1294 32.9015 10.5038C32.9015 20.3085 32.9251 30.1152 32.8801 39.9198C32.8651 41.4043 32.6826 42.8823 32.3361 44.3264C31.2651 48.7946 28.4806 51.7139 23.9826 52.7501C18.2616 54.065 12.8982 53.4416 8.56084 49.0329C7.48131 47.9372 6.68667 46.5711 5.64355 45.1732Z" fill="#141414"/>
<path d="M85.8564 53.2417C86.0514 52.8523 86.212 52.4736 86.4198 52.1267C90.715 44.9463 95.0188 37.7716 99.3312 30.6025C99.8046 29.8174 99.8667 29.2408 99.3526 28.4109C95.8185 22.7107 92.355 16.985 88.8723 11.2507C88.6409 10.872 88.4439 10.4698 88.1204 9.85706H89.5769C92.3229 9.85706 95.0688 9.87833 97.8126 9.84216C98.5066 9.84216 98.9285 10.0549 99.2627 10.655C101.357 14.4849 103.48 18.2765 105.596 22.0852C105.661 22.2022 105.738 22.3107 105.9 22.5682C106.089 22.1001 106.198 21.7384 106.372 21.4107C108.308 17.7127 110.256 14.0196 112.217 10.3315C112.302 10.2057 112.413 10.1002 112.544 10.0226C112.675 9.94491 112.821 9.8971 112.973 9.88259C116.002 9.86131 119.033 9.88259 122.061 9.89961C122.119 9.89961 122.177 9.96983 122.34 10.0783C122.145 10.4592 121.967 10.8677 121.74 11.2486C118.283 17.029 114.819 22.8065 111.347 28.5812C110.919 29.2918 110.955 29.8174 111.382 30.5089C115.808 37.6964 120.212 44.8953 124.593 52.1055C124.807 52.4544 124.978 52.8268 125.235 53.3013C124.918 53.3568 124.598 53.3951 124.276 53.4162C121.318 53.4162 118.358 53.3949 115.4 53.4374C114.644 53.4481 114.329 53.0459 114.016 52.5012C110.932 47.2117 107.85 41.937 104.772 36.6772C104.594 37.1857 104.386 37.683 104.148 38.1666C102.191 41.7781 100.219 45.3811 98.2324 48.9756C97.547 50.216 96.838 51.4459 96.0691 52.6374C95.8549 52.9736 95.3987 53.3693 95.0453 53.3757C92.1237 53.4289 89.2 53.397 86.2763 53.3864C86.1306 53.3564 85.9895 53.3078 85.8564 53.2417Z" fill="white"/>
</g>
</g>
<defs>
<clipPath id="clip0_257_126">
<rect width="131.942" height="60.215" fill="white" transform="translate(0 0.960938)"/>
</clipPath>
</defs>
</svg>
