<svg width="294" height="71" viewBox="0 0 294 71" fill="none" xmlns="http://www.w3.org/2000/svg">
<g clip-path="url(#clip0_257_211)">
<path d="M34.6983 70.176C53.8616 70.176 69.3966 54.506 69.3966 35.176C69.3966 15.8461 53.8616 0.176025 34.6983 0.176025C15.535 0.176025 0 15.8461 0 35.176C0 54.506 15.535 70.176 34.6983 70.176Z" fill="#141414"/>
<path d="M43.9727 30.8998C41.7815 21.1427 36.6062 17.9385 36.0441 16.7135C35.4369 15.8481 34.8158 14.3098 34.8158 14.3098C34.8054 14.2845 34.7889 14.2381 34.7707 14.1943C34.7074 15.0588 34.6744 15.3922 33.8642 16.2646C32.609 17.2542 26.1699 22.7046 25.6459 33.79C25.1558 44.1246 33.0497 50.2846 34.1166 51.0703L34.2381 51.1578V51.15C34.245 51.2025 34.5772 53.6113 34.8106 56.1637H35.6468C35.8429 54.3595 36.1369 52.5674 36.5273 50.7956L36.5958 50.751C37.0733 50.4057 37.5284 50.0301 37.9586 49.6266L38.0072 49.582C40.2756 47.468 44.3552 42.5776 44.3153 34.7805C44.3067 33.4796 44.1921 32.1817 43.9727 30.8998ZM34.7212 45.2332C34.7212 45.2332 34.7212 30.7327 35.1957 30.7353C35.5662 30.7353 36.045 49.4393 36.045 49.4393C35.3866 49.3588 34.7212 46.3611 34.7212 45.2332Z" fill="white"/>
<path d="M289.614 44.2173C288.881 44.2173 288.164 43.9985 287.553 43.5886C286.943 43.1787 286.466 42.5959 286.183 41.9136C285.901 41.2312 285.824 40.4797 285.963 39.7535C286.103 39.0273 286.452 38.3589 286.967 37.8323C287.481 37.3056 288.139 36.9443 288.857 36.7937C289.575 36.6431 290.321 36.7099 291.001 36.9858C291.682 37.2617 292.266 37.7343 292.681 38.3442C293.096 38.9541 293.322 39.6741 293.333 40.4137C293.359 41.3958 292.997 42.3481 292.327 43.0612C291.657 43.7744 290.734 44.1899 289.761 44.2165C289.712 44.2165 289.662 44.2165 289.614 44.2165M289.614 37.0528C288.945 37.0487 288.29 37.2447 287.731 37.6161C287.173 37.9874 286.736 38.5175 286.476 39.1392C286.216 39.761 286.145 40.4465 286.271 41.1092C286.397 41.7718 286.715 42.3818 287.185 42.8621C287.655 43.3425 288.255 43.6715 288.911 43.8076C289.566 43.9437 290.246 43.8809 290.866 43.627C291.486 43.3731 292.017 42.9395 292.393 42.3812C292.768 41.8228 292.971 41.1646 292.976 40.4898V40.4767C292.993 39.5863 292.659 38.7255 292.047 38.0835C291.435 37.4416 290.596 37.0712 289.713 37.0537H289.614M290.512 42.8383L289.552 40.7506H288.777V42.8383H288.214V38.0897H289.602C290.635 38.0897 291.065 38.5421 291.065 39.4171C291.065 40.1171 290.74 40.5476 290.135 40.6806L291.126 42.8313L290.512 42.8383ZM288.801 40.2606H289.616C290.274 40.2606 290.526 40.034 290.526 39.4285C290.526 38.823 290.285 38.6165 289.544 38.6165H288.801V40.2606Z" fill="#141414"/>
<path d="M234.264 40.7988C235.27 41.6099 237.281 41.945 239.054 41.945C241.352 41.945 243.605 41.5154 245.806 39.5099C248.048 37.4545 249.59 34.3089 249.59 29.2864C249.59 24.4616 247.769 20.5451 244.038 18.2518C241.931 16.9156 239.202 16.3889 236.087 16.3889C235.19 16.3889 234.266 16.4361 233.745 16.6759C233.53 16.8474 233.377 17.0863 233.311 17.3549C233.218 18.2141 233.218 24.7574 233.218 28.6266C233.218 32.593 233.218 38.1239 233.311 38.802C233.361 39.376 233.648 40.3849 234.266 40.8075M224.705 14.2408C225.519 14.2408 228.609 14.3834 230.052 14.3834C232.741 14.3834 234.6 14.2408 239.628 14.2408C243.842 14.2408 247.389 15.387 249.924 17.5833C252.991 20.2599 254.632 23.9839 254.632 28.5208C254.632 34.9695 251.717 38.6961 248.788 40.797C245.873 42.995 242.082 44.2358 236.682 44.2358C233.809 44.2358 228.875 44.1413 224.757 44.0931H224.67C224.477 43.7116 225.022 42.2215 225.358 42.183C226.478 42.0561 226.774 42.008 227.29 41.7963C228.158 41.4366 228.364 40.9886 228.461 39.4128C228.604 36.4509 228.557 32.9168 228.557 28.9031C228.557 26.0375 228.604 20.448 228.51 18.6796C228.364 17.2009 227.745 16.8194 226.492 16.5315C225.604 16.3417 224.706 16.1983 223.803 16.1019C223.709 15.8149 224.444 14.5199 224.684 14.239" fill="#141414"/>
<path d="M266.502 16.6645C266.312 16.7126 266.068 17.1895 266.068 17.4293C266.018 19.1495 265.972 23.6418 265.972 26.7428C265.984 26.8022 266.013 26.8566 266.056 26.8992C266.099 26.9419 266.153 26.9709 266.212 26.9825C266.832 27.0298 268.366 27.0796 269.659 27.0796C271.481 27.0796 272.533 26.8399 273.107 26.5546C274.64 25.7908 275.349 24.1169 275.349 22.3039C275.349 18.1476 272.475 16.5718 268.213 16.5718C267.637 16.5643 267.061 16.5959 266.489 16.6663M277.361 35.7736C277.361 31.5736 274.295 29.1823 268.687 29.1823C268.449 29.1823 266.669 29.135 266.245 29.2295C266.102 29.2776 265.958 29.3721 265.958 29.4693C265.958 32.4793 265.909 37.3023 266.055 39.2133C266.151 40.0244 266.727 41.1706 267.443 41.5058C268.21 41.9354 269.934 42.0308 271.13 42.0308C274.435 42.0308 277.358 40.1705 277.358 35.7745M257.84 14.3274C258.274 14.3274 259.546 14.4691 262.804 14.4691C265.867 14.4691 268.355 14.3746 271.322 14.3746C275.01 14.3746 280.083 15.7134 280.083 21.253C280.083 23.9655 278.169 26.1731 275.678 27.2249C275.535 27.2721 275.535 27.3675 275.678 27.4148C279.223 28.3195 282.334 30.5193 282.334 34.7228C282.334 38.8353 279.797 41.4113 276.109 43.0353C273.867 44.0389 271.078 44.3714 268.263 44.3714C266.109 44.3714 260.334 44.1456 257.124 44.1815C256.788 44.0389 257.431 42.5085 257.719 42.2705C258.453 42.2473 259.181 42.1321 259.887 41.9275C261.035 41.6423 261.172 41.2695 261.315 39.5484C261.411 38.067 261.411 32.7645 261.411 28.9906C261.411 23.8281 261.461 20.3465 261.411 18.6254C261.364 17.2893 260.885 16.857 259.975 16.6199C259.257 16.4755 258.06 16.3329 257.103 16.1903C256.863 15.9505 257.601 14.5173 257.838 14.3274" fill="#141414"/>
<path d="M86.0788 44.2173C85.9559 43.9125 85.9059 43.5828 85.933 43.2548C85.9226 43.0305 85.9729 42.8076 86.0788 42.61C86.6982 42.52 87.312 42.3938 87.9169 42.232C88.7644 42.0202 89.0828 41.5538 89.1313 40.4645C89.2701 37.8885 89.2788 33.0567 89.2294 29.66V29.5585C89.2294 29.1918 89.2294 28.694 88.7818 28.344C87.9939 27.8455 87.1387 27.4647 86.2427 27.2135C85.8411 27.0936 85.619 26.881 85.6303 26.6325C85.6416 26.384 85.8949 26.0891 86.4171 25.985C87.805 25.8432 91.4405 24.9682 92.8692 24.3032C93.0161 24.4965 93.0841 24.7391 93.0592 24.9813C93.0592 25.131 93.0366 25.2893 93.021 25.4521C92.9811 25.9307 92.9343 26.4758 92.9343 27.0183C92.9468 27.1123 92.9957 27.1974 93.0704 27.255C93.145 27.3125 93.2393 27.3379 93.3325 27.3255C93.409 27.3146 93.4801 27.2793 93.5354 27.2248C96.254 25.0741 98.6907 24.3076 99.9399 24.3076C101.995 24.3076 103.596 25.2981 104.836 27.3377C104.864 27.3869 104.905 27.4279 104.953 27.4567C105.002 27.4855 105.057 27.5012 105.113 27.5022C105.165 27.5019 105.215 27.4889 105.261 27.4646C105.306 27.4402 105.345 27.4051 105.374 27.3622C107.873 25.4495 110.35 24.3076 112.009 24.3076C115.927 24.3076 118.27 27.2677 118.27 32.222C118.27 33.6465 118.256 35.4533 118.243 37.1377C118.232 38.6165 118.221 40.0025 118.221 40.9615C118.221 41.1872 118.53 41.8365 118.994 41.9677C119.568 42.2503 120.395 42.3947 121.442 42.5758H121.482C121.56 42.8602 121.396 43.9662 121.236 44.1928C120.976 44.1928 120.617 44.1701 120.169 44.1473C119.355 44.1062 118.239 44.0502 116.94 44.0502C114.338 44.0502 112.975 44.1001 111.675 44.1858C111.576 43.8577 111.543 42.7998 111.662 42.5776C112.2 42.4929 112.733 42.376 113.258 42.2276C114.087 41.952 114.327 41.5713 114.379 40.4618C114.399 39.6743 114.552 32.719 114.282 31.0687C114.035 29.3572 112.757 27.3535 109.962 27.3535C108.922 27.3535 107.25 27.791 105.654 29.0107C105.555 29.1241 105.499 29.2693 105.497 29.4202V29.4543C105.685 30.3451 105.685 31.3855 105.685 32.9543C105.685 33.8582 105.685 34.8015 105.674 35.7447C105.662 37.6618 105.654 39.4705 105.685 40.839C105.685 41.77 106.244 41.994 106.694 42.1725C106.939 42.2267 107.128 42.2748 107.326 42.3195C107.7 42.4122 108.091 42.5076 108.671 42.6003C108.757 42.9977 108.749 43.4097 108.648 43.8035C108.625 43.951 108.568 44.091 108.481 44.2121C107.032 44.1631 105.546 44.1193 103.401 44.1193C102.75 44.1193 101.69 44.1465 100.754 44.1718C99.9936 44.192 99.2789 44.2121 98.8677 44.2147C98.7577 43.952 98.7088 43.6674 98.7246 43.3826C98.702 43.1143 98.7539 42.8449 98.8746 42.6047L99.4506 42.4988C99.9529 42.4113 100.388 42.3308 100.796 42.2267C101.505 42.001 101.771 41.6142 101.822 40.7007C101.962 38.5753 102.069 32.4495 101.771 30.9165C101.264 28.4568 99.8765 27.2082 97.6446 27.2082C96.3373 27.2082 94.6848 27.8435 93.3359 28.8637C93.2059 28.9911 93.1035 29.1442 93.0351 29.3135C92.9668 29.4828 92.9339 29.6645 92.9386 29.8472V32.3777C92.9386 35.4525 92.9187 39.2806 92.9924 40.9361C93.0375 41.4471 93.2171 42.0526 94.1652 42.2748C94.3734 42.3361 94.7325 42.3947 95.1489 42.4647C95.3892 42.505 95.6512 42.5478 95.9227 42.5977C96.0087 43.1393 95.965 43.6937 95.7952 44.2147C95.3779 44.2147 94.8644 44.1876 94.2771 44.1631C93.3802 44.122 92.2594 44.0756 90.9929 44.0756C89.4957 44.0756 88.453 44.1255 87.6168 44.1631C87.0547 44.1902 86.568 44.2121 86.0814 44.2147" fill="#141414"/>
<path d="M134.151 26.3517C133.342 26.3349 132.547 26.5609 131.865 27.0009C130.202 28.0203 129.35 30.0582 129.35 33.0516C129.35 38.6516 132.132 42.5689 136.116 42.5689C137.184 42.6032 138.226 42.2313 139.035 41.5268C140.259 40.5206 140.909 38.4643 140.909 35.5821C140.909 30.0626 138.19 26.3517 134.143 26.3517M134.909 44.6471C127.709 44.6471 125.151 39.3218 125.151 34.3404C125.151 30.8606 126.561 28.1402 129.343 26.2519C131.292 25.0358 133.528 24.3689 135.819 24.3208C141.309 24.3208 145.145 28.3029 145.145 34.0079C145.145 37.8842 143.614 40.9458 140.715 42.8586C139.327 43.7178 136.905 44.6471 134.909 44.6471Z" fill="#141414"/>
<path d="M207.409 26.3517C206.598 26.3335 205.801 26.5595 205.118 27.0009C203.455 28.0203 202.608 30.0582 202.608 33.0516C202.608 38.6516 205.389 42.5689 209.374 42.5689C210.445 42.6054 211.49 42.2333 212.301 41.5268C213.525 40.5206 214.173 38.4643 214.173 35.5821C214.173 30.0626 211.456 26.3517 207.407 26.3517M208.174 44.6471C200.978 44.6471 198.416 39.3218 198.416 34.3431C198.416 30.8579 199.826 28.1402 202.61 26.2519C204.558 25.0349 206.794 24.368 209.084 24.3208C214.574 24.3208 218.41 28.3056 218.41 34.0062C218.41 37.8859 216.879 40.9458 213.98 42.8559C212.592 43.7178 210.169 44.6471 208.174 44.6471Z" fill="#141414"/>
<path d="M183.181 26.1636C180.965 26.1636 179.53 27.9293 179.53 30.6637C179.53 33.3981 180.765 36.6461 184.237 36.6461C184.834 36.6461 185.914 36.3836 186.45 35.7851C187.257 35.0361 187.795 33.49 187.795 31.8572C187.795 28.2916 186.073 26.1636 183.193 26.1636M182.906 45.0312C182.279 45.024 181.662 45.1798 181.112 45.4836C179.358 46.6141 178.544 47.7446 178.544 49.058C178.544 50.2882 179.017 51.2673 180.034 52.1353C181.267 53.1897 182.931 53.7024 185.116 53.7024C189.418 53.7024 191.346 51.3688 191.346 49.058C191.346 47.448 190.545 46.37 188.898 45.7592C187.629 45.2911 185.509 45.033 182.912 45.033M183.2 56.1131C180.617 56.1131 178.756 55.5636 177.167 54.329C175.621 53.1258 174.926 51.34 174.926 50.1053C174.942 49.3098 175.243 48.547 175.772 47.9572C176.221 47.441 177.264 46.4758 179.676 44.8072C179.713 44.7912 179.745 44.7645 179.767 44.7305C179.79 44.6964 179.802 44.6564 179.802 44.6156C179.803 44.5698 179.788 44.525 179.76 44.4887C179.732 44.4525 179.693 44.4268 179.649 44.4161C177.665 43.6496 177.067 42.3808 176.885 41.7036C176.887 41.6671 176.88 41.6308 176.865 41.5977C176.809 41.3308 176.755 41.0771 177.116 40.8172C177.394 40.6186 177.838 40.3517 178.313 40.0691C178.984 39.6943 179.628 39.2718 180.239 38.8047C180.296 38.7427 180.326 38.6604 180.323 38.576C180.32 38.4915 180.284 38.4117 180.222 38.3541C180.203 38.3356 180.182 38.32 180.158 38.3077C177.221 37.3128 175.742 35.1122 175.742 31.7452C175.733 30.6967 175.975 29.6615 176.447 28.7275C176.919 27.7934 177.608 26.988 178.455 26.3797C179.636 25.4364 182.601 24.3042 184.522 24.3042H184.634C186.61 24.3514 187.723 24.7697 189.266 25.3446C190.143 25.6636 191.073 25.8121 192.005 25.7821C193.639 25.7821 194.354 25.2571 194.968 24.6516C195.068 24.9256 195.121 25.2146 195.125 25.5064C195.163 26.2017 194.976 26.8906 194.592 27.4691C194.258 27.9372 193.471 28.2758 192.752 28.2758C192.677 28.2776 192.602 28.2738 192.527 28.2645C192.149 28.238 191.773 28.1753 191.407 28.0772L191.223 28.1428C191.165 28.2303 191.203 28.3239 191.25 28.4456C191.261 28.4692 191.271 28.4942 191.276 28.5199C191.408 29.1236 191.497 29.7359 191.544 30.3522C191.544 33.8679 190.17 35.3992 188.681 36.5341C187.244 37.6212 185.538 38.2873 183.75 38.4591C183.711 38.4591 183.526 38.4748 183.176 38.5063C182.951 38.5264 182.66 38.5536 182.618 38.5536H182.575C182.252 38.6411 181.409 39.0488 181.409 39.8022C181.409 40.4261 181.79 41.2022 183.612 41.3413L184.792 41.4288C187.195 41.5986 190.197 41.8086 191.609 42.2907C192.546 42.6229 193.355 43.2447 193.921 44.0676C194.487 44.8904 194.782 45.8725 194.763 46.874C194.763 50.0283 192.539 52.999 188.816 54.8085C187.06 55.6544 185.137 56.0896 183.192 56.0816" fill="#141414"/>
<path d="M172.184 42.5349C171.131 42.3931 170.362 42.2479 169.454 41.8182C169.276 41.6323 169.158 41.3956 169.117 41.1401C169.021 39.6587 169.021 35.3607 169.021 32.5476C169.021 30.2525 168.64 28.2514 167.676 26.8155C166.526 25.1897 164.9 24.2351 162.791 24.2351C160.924 24.2351 158.434 25.524 156.372 27.2924C156.322 27.3396 156.007 27.6424 156.014 27.1725C156.02 26.7026 156.092 25.748 156.137 25.1372C156.156 24.975 156.138 24.8104 156.084 24.6566C156.029 24.5027 155.94 24.3638 155.823 24.2509C154.478 24.9299 150.705 25.8337 149.308 25.972C148.291 26.1706 148.033 27.1594 149.12 27.5006H149.135C150.006 27.7427 150.837 28.1115 151.602 28.5952C152.035 28.9295 151.985 29.4064 151.985 29.7887C152.032 32.9886 152.032 37.9087 151.889 40.5836C151.842 41.6336 151.552 42.0177 150.785 42.2094L150.857 42.1849C150.273 42.332 149.681 42.4436 149.084 42.5191C148.845 42.7571 148.845 44.1431 149.084 44.4301C149.564 44.4301 151.998 44.2875 154.016 44.2875C156.792 44.2875 158.228 44.4301 158.948 44.4301C159.237 44.095 159.331 42.8061 159.141 42.5191C158.477 42.4893 157.819 42.3932 157.174 42.2321C156.41 42.0422 156.22 41.6581 156.171 40.8006C156.076 38.5536 156.076 33.7779 156.076 30.5281C156.076 29.6234 156.314 29.192 156.596 28.9452C157.551 28.086 159.136 27.5137 160.523 27.5137C161.869 27.5137 162.766 27.9434 163.438 28.5156C164.224 29.204 164.717 30.1707 164.816 31.2159C165.007 33.0245 164.958 36.6627 164.958 39.8084C164.958 41.5286 164.816 41.9609 164.194 42.1507C163.907 42.2934 163.14 42.4377 162.23 42.5331C161.943 42.8201 162.037 44.1562 162.23 44.4432C163.474 44.4432 164.919 44.3015 167.018 44.3015C169.653 44.3015 171.329 44.4432 171.999 44.4432C172.286 44.109 172.382 42.8604 172.192 42.5331" fill="#141414"/>
</g>
<defs>
<clipPath id="clip0_257_211">
<rect width="293.333" height="70" fill="white" transform="translate(0 0.176025)"/>
</clipPath>
</defs>
</svg>
