<svg width="117" height="71" viewBox="0 0 117 71" fill="none" xmlns="http://www.w3.org/2000/svg">
<g clip-path="url(#clip0_257_194)">
<path d="M82.4054 3.51902C80.612 2.5793 78.8526 1.58654 77.0838 0.605878C76.8865 0.496089 76.726 0.321171 76.5486 0.176025H75.7935C75.6991 0.604948 75.5235 1.03387 75.5216 1.46279C75.5028 6.54846 75.5103 11.6351 75.5084 16.7216C75.5084 17.7116 75.2328 17.8642 74.3531 17.3655C73.6446 16.9636 72.9367 16.5604 72.2294 16.156C71.7263 15.8647 71.2232 15.8368 70.7088 16.129C67.1403 18.1591 63.5708 20.1887 60.0004 22.2176C59.4964 22.5033 59.2802 22.9378 59.2793 23.4886C59.2793 27.4894 59.2793 31.4902 59.2793 35.491C59.2793 36.1069 59.5323 36.5749 60.1061 36.8987C63.5315 38.8321 66.9597 40.7637 70.3576 42.7436C71.1458 43.2023 71.7886 43.1585 72.5446 42.7222C75.8564 40.8111 79.1804 38.9193 82.5167 37.0466C83.2596 36.6307 83.5607 36.1069 83.555 35.2528C83.5317 25.3134 83.5317 15.3738 83.555 5.43382C83.5654 4.49223 83.2171 3.94422 82.4054 3.51902ZM75.4999 29.5316C75.4999 30.1206 75.4933 30.7096 75.4999 31.2994C75.5046 31.6418 75.3791 31.8903 75.0695 32.0633C73.9897 32.6681 72.9134 33.2784 71.8405 33.8944C71.7075 33.9779 71.5527 34.0216 71.395 34.0199C71.2373 34.0183 71.0835 33.9714 70.9523 33.8851C69.8791 33.2701 68.7889 32.682 67.7355 32.0363C67.6213 31.9531 67.5261 31.8472 67.456 31.7253C67.3859 31.6035 67.3425 31.4686 67.3287 31.3292C67.2872 30.1383 67.3127 28.9445 67.307 27.7508C67.2959 27.5885 67.334 27.4267 67.4163 27.2857C67.4987 27.1448 67.6216 27.0311 67.7695 26.959C68.8654 26.3515 69.9405 25.7095 71.0476 25.1196C71.1624 25.069 71.2867 25.0429 71.4124 25.0429C71.5382 25.0429 71.6625 25.069 71.7772 25.1196C72.8948 25.7207 73.9991 26.3478 75.0808 27.013C75.2894 27.1414 75.4584 27.4708 75.481 27.7229C75.5386 28.3221 75.499 28.9325 75.499 29.5344L75.4999 29.5316Z" fill="#141414"/>
<path d="M23.4479 21.7896C19.9952 19.8414 16.5466 17.8859 13.102 15.9234C12.4262 15.5372 11.825 15.5577 11.1567 15.9438C8.9329 17.2306 6.67231 18.456 4.46079 19.7641C2.95813 20.6517 1.30633 21.3077 0 22.5061V39.9049C0.502146 40.264 0.952377 40.1645 1.46963 39.8621C3.29604 38.7958 5.13472 37.7482 6.99983 36.7489C7.80968 36.3163 8.13249 35.7254 8.12117 34.8388C8.09096 32.5453 8.13721 30.2499 8.09662 27.9537C8.08247 27.1582 8.41094 26.6743 9.08109 26.3208C9.8277 25.9216 10.5668 25.5076 11.2898 25.0684C11.8561 24.7214 12.4017 24.7102 12.9737 25.0461C13.7288 25.4899 14.4839 25.9402 15.2635 26.3487C15.9762 26.7209 16.2461 27.2717 16.2386 28.0523C16.215 30.4239 16.2386 32.7974 16.2263 35.1681C16.2263 35.8194 16.4708 36.2846 17.0607 36.6075C19.0617 37.7156 21.0467 38.8535 23.0439 39.97C23.8217 40.4055 24.2559 40.1561 24.2568 39.2908C24.2619 33.9273 24.266 28.5618 24.2691 23.1946C24.271 22.5451 24.0095 22.1069 23.4479 21.7896Z" fill="#141414"/>
<path d="M112.442 22.0148C108.95 20.0024 105.458 18.0085 101.965 16.0025C101.389 15.6713 100.857 15.6973 100.28 16.0276C96.8264 18.0057 93.3655 19.9726 89.8977 21.9283C89.2832 22.2735 88.9991 22.7359 89.001 23.4309C89.0123 27.4007 89.0123 31.3705 89.001 35.3403C89.001 35.9832 89.2691 36.4242 89.8307 36.7359C93.2765 38.6631 96.7188 40.5975 100.158 42.5389C100.768 42.8851 101.318 42.9111 101.929 42.5724C103.251 41.8281 104.595 41.1117 105.93 40.3822C106.644 39.9915 107.363 39.6072 108.071 39.2043C108.688 38.8535 108.688 38.3176 108.086 37.9362C107.992 37.8775 107.898 37.8273 107.803 37.7733C104.405 35.8542 101.007 33.936 97.6092 32.0187C97.2043 31.7917 96.9485 31.5042 96.9485 31.0306C96.9485 29.8992 96.9485 28.7678 96.9485 27.6364C96.9485 27.2308 97.1373 26.9377 97.5035 26.733C98.4889 26.185 99.4715 25.6295 100.443 25.0582C100.855 24.8154 101.223 24.8182 101.633 25.0582C102.551 25.5988 103.471 26.1375 104.414 26.6344C104.94 26.9135 105.15 27.3015 105.136 27.8737C105.116 28.6943 105.122 29.5168 105.136 30.3384C105.148 30.9822 105.556 31.2157 106.152 30.9403C106.294 30.8743 106.429 30.7933 106.565 30.7161C107.68 30.0797 108.815 29.4721 109.907 28.7957C111.04 28.0933 112.355 27.6485 113.257 26.6009V22.6922C112.993 22.4642 112.746 22.1907 112.442 22.0148Z" fill="#141414"/>
<path d="M68.3368 49.1914C68.3368 48.2098 67.9423 47.485 67.0588 46.9873C63.7734 45.1339 60.4941 43.2693 57.2207 41.3936C56.3825 40.9144 55.5661 40.9098 54.7241 41.3936C51.4086 43.2892 48.0893 45.1785 44.7662 47.0617C43.9978 47.499 43.5939 48.1289 43.5967 49.0286C43.6074 52.8433 43.6074 56.658 43.5967 60.4727C43.5967 61.3427 43.961 61.9968 44.7161 62.4341C45.5656 62.9281 46.4208 63.4259 47.2901 63.892C48.1245 64.3396 48.9995 64.6652 49.9811 64.5619C51.0609 64.4494 51.9737 64.0521 52.3908 62.9951C52.5826 62.5092 52.6843 61.9933 52.691 61.472C52.7174 57.7047 52.7052 53.9356 52.7118 50.1684C52.7118 49.825 52.6098 49.639 52.2228 49.6752C51.9719 49.7018 51.7187 49.7018 51.4677 49.6752C50.9958 49.6194 50.8429 49.7897 50.8467 50.2679C50.8665 53.1978 50.8561 56.1296 50.8561 59.0594C50.8561 59.8196 50.8693 60.5797 50.8514 61.339C50.8306 62.2191 50.252 62.7709 49.3666 62.6964C48.9637 62.6485 48.5741 62.5233 48.2198 62.328C47.4005 61.9028 46.6152 61.4106 45.8035 60.9733C45.4939 60.8068 45.4042 60.5918 45.4052 60.2625C45.4134 56.5873 45.4134 52.9122 45.4052 49.237C45.4052 48.9058 45.4996 48.6974 45.8054 48.5271C49.0775 46.6781 52.344 44.8203 55.6048 42.9539C55.712 42.8796 55.8399 42.8398 55.971 42.8398C56.1021 42.8398 56.23 42.8796 56.3372 42.9539C59.5993 44.8185 62.8654 46.6753 66.1357 48.5243C66.2624 48.5835 66.368 48.6791 66.4387 48.7984C66.5095 48.9178 66.542 49.0554 66.5321 49.1933C66.5245 52.8995 66.5245 56.6056 66.5321 60.3118C66.5321 60.6318 66.4122 60.8217 66.1347 60.9789C62.8626 62.8298 59.5968 64.6872 56.3372 66.5512C56.0739 66.701 55.8653 66.7103 55.6 66.5512C54.8796 66.1102 54.1496 65.684 53.4102 65.2728C53.2602 65.189 53.0327 65.1025 52.8958 65.1555C52.3087 65.39 51.7424 65.6756 51.0807 65.9836L55.3112 68.4688H56.8214C56.8078 68.4615 56.7945 68.4534 56.7818 68.4446C56.7732 68.4358 56.7656 68.4261 56.7591 68.4157C56.842 68.3489 56.9287 68.2868 57.0187 68.2296C60.3657 66.3254 63.714 64.4227 67.0635 62.5215C67.9441 62.0247 68.3453 61.3045 68.3415 60.3118C68.3302 56.605 68.3286 52.8982 68.3368 49.1914Z" fill="#141414"/>
<path d="M60.8087 58.5905C59.7808 58.8491 58.7321 58.8426 57.7014 58.6835C56.918 58.5625 56.0383 58.3411 55.8495 57.4926C55.6381 56.5445 55.0944 56.4691 54.3346 56.5621C54.2719 56.5697 54.2085 56.5697 54.1458 56.5621C53.8088 56.5184 53.7182 56.6775 53.7097 56.9911C53.6795 58.2509 54.5809 59.493 55.9656 59.9982C57.7724 60.6757 59.7566 60.7412 61.6053 60.1843C62.9022 59.8009 63.898 59.0845 64.1255 57.6191C64.386 55.9443 63.7017 54.839 62.148 54.4482C60.9616 54.1496 59.7392 53.9951 58.5348 53.7672C57.9374 53.6537 57.3323 53.5578 56.7537 53.382C55.9986 53.1531 55.7957 52.312 56.362 51.7575C56.6044 51.518 56.9142 51.3559 57.2512 51.2923C57.9459 51.1992 58.6557 51.188 59.3598 51.1741C60.6812 51.1471 61.6053 51.6467 61.8922 52.8488C61.9262 52.9912 62.1141 53.1819 62.2509 53.1996C62.6244 53.2522 63.0035 53.2522 63.377 53.1996C63.5336 53.1745 63.7819 52.9447 63.7772 52.8144C63.7347 51.3816 62.9022 50.2176 61.4939 49.7906C60.6123 49.5235 59.6713 49.4491 58.7567 49.2891L58.7368 49.4128C57.6702 49.3495 56.6442 49.4975 55.6862 49.9832C54.1864 50.7433 53.689 52.3753 54.3053 53.8109C54.6612 54.6408 55.3993 55.0632 56.2261 55.2456C57.3588 55.4968 58.5226 55.6178 59.6684 55.8225C60.3021 55.915 60.928 56.0534 61.5411 56.2365C62.1424 56.4365 62.3198 56.898 62.1565 57.5102C61.9744 58.196 61.4231 58.436 60.8087 58.5905Z" fill="#141414"/>
<path d="M53.8557 32.096C53.8557 31.2586 53.8557 30.4212 53.8557 29.5838C52.8174 29.1065 51.7791 28.6329 50.7522 28.1482C51.7839 28.6329 52.8202 29.1065 53.8557 29.5838C53.8614 27.469 53.8793 25.3532 53.8557 23.2374C53.8557 22.9583 53.6443 22.6792 53.531 22.4001C53.3422 22.2456 53.1723 22.0623 52.9647 21.9423C51.2896 20.9784 49.6095 20.0225 47.9243 19.0747C47.3835 18.7696 46.8172 18.5053 46.2508 18.215C46.1749 18.1478 46.0945 18.0856 46.0101 18.029C45.1493 17.5327 44.2869 17.039 43.423 16.5477L42.1959 15.8964L42.0015 15.8267L41.3408 15.903L39.0698 17.1581L37.1924 18.2346L35.2102 19.3576C34.827 19.5669 34.44 19.7698 34.0625 19.9875C32.8335 20.6971 31.6065 21.4104 30.3813 22.1275C30.1861 22.2116 30.0203 22.3507 29.905 22.5273C29.7896 22.7039 29.7297 22.9102 29.7329 23.1202C29.7159 24.0013 29.7329 24.8824 29.7404 25.7645V29.0209C29.7404 30.0444 29.7404 31.0678 29.7404 32.0913C29.7348 33.2525 29.7187 34.4173 29.7329 35.5739C29.7329 35.7758 29.8613 35.9767 29.9302 36.1786C30.0963 36.3359 30.2398 36.5322 30.4332 36.6438C33.9615 38.6647 37.4957 40.6753 41.0359 42.6757C41.2888 42.8172 41.6277 42.8097 41.9269 42.8721L43.7023 42.0161L45.7789 40.8251L47.0173 40.1124L47.5704 39.8054L48.4199 39.3272L49.7413 38.5782L50.7909 37.965C51.6319 37.4924 52.4814 37.0346 53.312 36.5396C53.4911 36.4407 53.6376 36.2932 53.734 36.1145C53.8304 35.9359 53.8726 35.7337 53.8557 35.532V32.096ZM33.2309 30.7003C33.4134 30.4181 33.5959 30.1365 33.7784 29.8555C33.5984 30.1359 33.4159 30.4172 33.2309 30.6994V30.7003ZM38.9678 37.4226C38.343 36.298 37.7175 35.1735 37.0914 34.0489L35.113 30.5077L34.6335 29.7113C34.7934 29.9768 34.9532 30.2422 35.113 30.5077L37.0895 34.0433C37.715 35.1679 38.3405 36.2924 38.9659 37.417C39.5002 38.3803 40.035 39.3433 40.5705 40.306C40.0369 39.3464 39.5027 38.385 38.9678 37.4217V37.4226ZM50.4851 27.8867C50.6739 27.5183 50.8626 27.1495 51.0514 26.7805C50.8626 27.1526 50.6739 27.5214 50.4851 27.8867Z" fill="#141414"/>
<path d="M103.224 29.957V29.4843C103.028 29.3913 102.832 29.3047 102.636 29.2126C102.832 29.3057 103.028 29.3941 103.224 29.4843C103.224 29.0842 103.229 28.6832 103.224 28.2822C103.214 28.2263 103.193 28.1728 103.163 28.1241C103.13 28.0924 103.094 28.0635 103.056 28.0375C102.739 27.8552 102.42 27.674 102.101 27.4942C101.997 27.4355 101.89 27.3853 101.784 27.3304C101.77 27.3181 101.755 27.3066 101.739 27.296C101.575 27.2023 101.412 27.1093 101.248 27.0169L101.016 26.8931L100.979 26.8792L100.853 26.894L100.423 27.1322L100.067 27.336L99.6896 27.5491C99.617 27.5881 99.5433 27.6263 99.4716 27.6681L98.7741 28.0729C98.7376 28.0889 98.7065 28.115 98.6848 28.148C98.663 28.181 98.6514 28.2196 98.6514 28.259C98.6514 28.4264 98.6514 28.593 98.6514 28.7605V29.9588C98.6514 30.1793 98.6514 30.3989 98.6514 30.6185C98.6583 30.6585 98.671 30.6974 98.6891 30.7339C98.7168 30.7667 98.7485 30.7961 98.7835 30.8213C99.4518 31.2047 100.121 31.5855 100.792 31.9639C100.846 31.9846 100.903 31.9972 100.961 32.0011L101.296 31.8392L101.69 31.614L101.925 31.4791L102.03 31.4205L102.19 31.3275L102.44 31.1851L102.639 31.0698C102.799 30.9767 102.96 30.892 103.117 30.799C103.151 30.7805 103.179 30.7526 103.197 30.7188C103.216 30.6849 103.224 30.6465 103.221 30.6083L103.224 29.957ZM99.3168 29.6927C99.3508 29.6388 99.3857 29.5857 99.4206 29.5327C99.3904 29.5857 99.3508 29.6388 99.3168 29.6927ZM100.048 30.3273C99.9228 30.104 99.7982 29.8797 99.6708 29.6564C99.7953 29.8797 99.9199 30.104 100.048 30.3273Z" fill="#141414"/>
<path d="M71.876 46.3965C71.4909 46.3978 71.1149 46.5114 70.7952 46.7229C70.4755 46.9345 70.2264 47.2346 70.0794 47.5854C69.9324 47.9363 69.894 48.3221 69.969 48.6944C70.0441 49.0667 70.2292 49.4088 70.5011 49.6776C70.773 49.9464 71.1195 50.1298 71.4969 50.2049C71.8744 50.2799 72.266 50.2432 72.6223 50.0993C72.9786 49.9554 73.2838 49.7108 73.4993 49.3962C73.7149 49.0817 73.8312 48.7113 73.8336 48.3318C73.8336 47.2246 72.9936 46.3937 71.876 46.3965ZM71.8836 49.9498C71.6631 49.9491 71.4449 49.9051 71.2419 49.8203C71.0389 49.7356 70.855 49.6118 70.701 49.4563C70.5471 49.3007 70.4261 49.1164 70.3452 48.9142C70.2643 48.7121 70.2251 48.496 70.2299 48.2787C70.2361 47.8469 70.4162 47.4352 70.7304 47.1342C71.0446 46.8332 71.4672 46.6676 71.9053 46.6738C72.3433 46.6799 72.761 46.8574 73.0663 47.1671C73.3717 47.4768 73.5397 47.8934 73.5335 48.3252C73.5335 48.7568 73.3597 49.1706 73.0503 49.4759C72.741 49.7812 72.3213 49.953 71.8836 49.9535V49.9498Z" fill="#141414"/>
<path d="M72.527 48.3474C72.5496 48.0683 72.6931 47.7175 72.5723 47.5305C72.2372 47.0132 71.6775 47.3258 71.1668 47.2514C71.1668 47.9287 71.1593 48.5446 71.1753 49.1596C71.1753 49.2387 71.3027 49.315 71.3697 49.3922C71.4311 49.3076 71.5312 49.2285 71.5463 49.1364C71.5624 48.9591 71.5649 48.7809 71.5538 48.6033C72.1532 48.5018 72.1938 48.5195 72.2051 49.0257C72.2126 49.3755 72.3589 49.4546 72.7025 49.3374C72.6204 48.9884 72.5421 48.6554 72.4628 48.3223L72.527 48.3474ZM71.5916 48.1557V47.6431H72.1371C72.2504 48.1641 72.207 48.205 71.5916 48.1557Z" fill="#141414"/>
</g>
<defs>
<clipPath id="clip0_257_194">
<rect width="116.098" height="70" fill="white" transform="translate(0 0.176025)"/>
</clipPath>
</defs>
</svg>
